<svg width="1024" height="1024" viewBox="0 0 1024 1024" fill="none" xmlns="http://www.w3.org/2000/svg">
<path d="M0 627.873C0 623.914 3.17152 620.705 7.08378 620.705C10.996 620.705 14.1676 623.914 14.1676 627.873V628.138C14.1676 632.097 10.996 635.306 7.08378 635.306C3.17152 635.306 0 632.097 0 628.138V627.873Z" fill="url(#paint0_linear_11_127)"/>
<path d="M19.0213 613.206C19.0213 609.284 22.1634 606.105 26.0395 606.105C29.9155 606.105 33.0576 609.284 33.0576 613.206V642.672C33.0576 646.594 29.9155 649.773 26.0395 649.773C22.1634 649.773 19.0213 646.594 19.0213 642.672V613.206Z" fill="url(#paint1_linear_11_127)"/>
<path d="M37.9113 598.606C37.9113 594.684 41.0535 591.505 44.9295 591.505C48.8056 591.505 51.9477 594.684 51.9477 598.606V630.859C51.9477 634.781 48.8056 637.96 44.9295 637.96C41.0535 637.96 37.9113 634.781 37.9113 630.859V598.606Z" fill="url(#paint2_linear_11_127)"/>
<path d="M37.9113 647.716C37.9113 643.794 41.0535 640.615 44.9295 640.615C48.8056 640.615 51.9477 643.794 51.9477 647.716V657.405C51.9477 661.327 48.8056 664.506 44.9295 664.506C41.0535 664.506 37.9113 661.327 37.9113 657.405V647.716Z" fill="url(#paint3_linear_11_127)"/>
<path d="M56.9326 584.006C56.9326 580.084 60.0748 576.905 63.9508 576.905C67.8268 576.905 70.969 580.084 70.969 584.006V671.873C70.969 675.794 67.8268 678.974 63.9508 678.974C60.0748 678.974 56.9326 675.794 56.9326 671.873V584.006Z" fill="url(#paint4_linear_11_127)"/>
<path d="M75.8227 602.853C75.8227 598.931 78.9648 595.752 82.8409 595.752C86.7169 595.752 89.8591 598.931 89.8591 602.853V686.473C89.8591 690.395 86.7169 693.574 82.8409 693.574C78.9648 693.574 75.8227 690.395 75.8227 686.473V602.853Z" fill="url(#paint5_linear_11_127)"/>
<path d="M75.8227 569.405C75.8227 565.484 78.9648 562.304 82.8409 562.304C86.7169 562.304 89.8591 565.484 89.8591 569.405V584.404C89.8591 588.326 86.7169 591.505 82.8409 591.505C78.9648 591.505 75.8227 588.326 75.8227 584.404V569.405Z" fill="url(#paint6_linear_11_127)"/>
<path d="M94.844 554.805C94.844 550.883 97.9861 547.704 101.862 547.704C105.738 547.704 108.88 550.883 108.88 554.805V613.604C108.88 617.526 105.738 620.705 101.862 620.705C97.9861 620.705 94.844 617.526 94.844 613.604V554.805Z" fill="url(#paint7_linear_11_127)"/>
<path d="M94.844 642.407C94.844 638.485 97.9861 635.306 101.862 635.306C105.738 635.306 108.88 638.485 108.88 642.407V676.385C108.88 680.307 105.738 683.486 101.862 683.486C97.9861 683.486 94.844 680.307 94.844 676.385V642.407Z" fill="url(#paint8_linear_11_127)"/>
<path d="M94.844 694.304C94.844 690.382 97.9861 687.203 101.862 687.203C105.738 687.203 108.88 690.382 108.88 694.304V701.073C108.88 704.995 105.738 708.174 101.862 708.174C97.9861 708.174 94.844 704.995 94.844 701.073V694.304Z" fill="url(#paint9_linear_11_127)"/>
<path d="M113.865 656.808C113.865 652.923 116.978 649.773 120.818 649.773C124.658 649.773 127.77 652.923 127.77 656.808V715.872C127.77 719.757 124.658 722.907 120.818 722.907C116.978 722.907 113.865 719.757 113.865 715.872V656.808Z" fill="url(#paint10_linear_11_127)"/>
<path d="M132.755 671.607C132.755 667.685 135.897 664.506 139.774 664.506C143.65 664.506 146.792 667.685 146.792 671.607V730.141C146.792 734.062 143.65 737.242 139.774 737.242C135.897 737.242 132.755 734.062 132.755 730.141V671.607Z" fill="url(#paint11_linear_11_127)"/>
<path d="M151.777 686.008C151.777 682.123 154.889 678.974 158.729 678.974C162.569 678.974 165.682 682.123 165.682 686.008V698.352C165.682 702.237 162.569 705.387 158.729 705.387C154.889 705.387 151.777 702.237 151.777 698.352V686.008Z" fill="url(#paint12_linear_11_127)"/>
<path d="M151.777 715.209C151.777 711.323 154.889 708.174 158.729 708.174C162.569 708.174 165.682 711.323 165.682 715.209V744.94C165.682 748.825 162.569 751.975 158.729 751.975C154.889 751.975 151.777 748.825 151.777 744.94V715.209Z" fill="url(#paint13_linear_11_127)"/>
<path d="M170.798 700.608C170.798 696.723 173.911 693.574 177.75 693.574C181.59 693.574 184.703 696.723 184.703 700.608V759.54C184.703 763.425 181.59 766.575 177.75 766.575C173.911 766.575 170.798 763.425 170.798 759.54V700.608Z" fill="url(#paint14_linear_11_127)"/>
<path d="M189.688 769.76C189.688 765.875 192.801 762.726 196.641 762.726C200.48 762.726 203.593 765.875 203.593 769.76V774.14C203.593 778.026 200.48 781.175 196.641 781.175C192.801 781.175 189.688 778.026 189.688 774.14V769.76Z" fill="url(#paint15_linear_11_127)"/>
<path d="M189.688 715.209C189.688 711.323 192.801 708.174 196.641 708.174C200.48 708.174 203.593 711.323 203.593 715.209V752.107C203.593 755.993 200.48 759.142 196.641 759.142C192.801 759.142 189.688 755.993 189.688 752.107V715.209Z" fill="url(#paint16_linear_11_127)"/>
<path d="M208.578 730.008C208.578 726.086 211.72 722.907 215.596 722.907C219.472 722.907 222.614 726.086 222.614 730.008V788.542C222.614 792.463 219.472 795.643 215.596 795.643C211.72 795.643 208.578 792.463 208.578 788.542V730.008Z" fill="url(#paint17_linear_11_127)"/>
<path d="M227.468 744.409C227.468 740.451 230.64 737.242 234.552 737.242C238.464 737.242 241.636 740.451 241.636 744.409V757.151C241.636 761.11 238.464 764.318 234.552 764.318C230.64 764.318 227.468 761.11 227.468 757.151V744.409Z" fill="url(#paint18_linear_11_127)"/>
<path d="M227.468 774.539C227.468 770.58 230.64 767.371 234.552 767.371C238.464 767.371 241.636 770.58 241.636 774.539V803.208C241.636 807.167 238.464 810.376 234.552 810.376C230.64 810.376 227.468 807.167 227.468 803.208V774.539Z" fill="url(#paint19_linear_11_127)"/>
<path d="M246.489 759.076C246.489 755.154 249.632 751.975 253.508 751.975C257.384 751.975 260.526 755.154 260.526 759.076V791.329C260.526 795.251 257.384 798.43 253.508 798.43C249.632 798.43 246.489 795.251 246.489 791.329V759.076Z" fill="url(#paint20_linear_11_127)"/>
<path d="M246.489 808.849C246.489 804.927 249.632 801.748 253.508 801.748C257.384 801.748 260.526 804.927 260.526 808.849V817.742C260.526 821.664 257.384 824.843 253.508 824.843C249.632 824.843 246.489 821.664 246.489 817.742V808.849Z" fill="url(#paint21_linear_11_127)"/>
<path d="M113.865 540.271C113.865 536.386 116.978 533.237 120.818 533.237C124.658 533.237 127.77 536.386 127.77 540.271V566.817C127.77 570.702 124.658 573.852 120.818 573.852C116.978 573.852 113.865 570.702 113.865 566.817V540.271Z" fill="url(#paint22_linear_11_127)"/>
<path d="M113.865 583.939C113.865 580.054 116.978 576.905 120.818 576.905C124.658 576.905 127.77 580.054 127.77 583.939V599.07C127.77 602.956 124.658 606.105 120.818 606.105C116.978 606.105 113.865 602.956 113.865 599.07V583.939Z" fill="url(#paint23_linear_11_127)"/>
<path d="M146.792 584.404C146.792 588.326 143.65 591.505 139.774 591.505C135.897 591.505 132.755 588.326 132.755 584.404V551.885C132.755 547.963 135.897 544.784 139.774 544.784C143.65 544.784 146.792 547.963 146.792 551.885V584.404Z" fill="url(#paint24_linear_11_127)"/>
<path d="M132.755 525.605C132.755 521.683 135.897 518.504 139.774 518.504C143.65 518.504 146.792 521.683 146.792 525.605V534.763C146.792 538.685 143.65 541.864 139.774 541.864C135.897 541.864 132.755 538.685 132.755 534.763V525.605Z" fill="url(#paint25_linear_11_127)"/>
<path d="M151.777 511.005C151.777 507.083 154.919 503.904 158.795 503.904C162.671 503.904 165.813 507.083 165.813 511.005V569.804C165.813 573.725 162.671 576.905 158.795 576.905C154.919 576.905 151.777 573.725 151.777 569.804V511.005Z" fill="url(#paint26_linear_11_127)"/>
<path d="M170.667 534.896C170.667 530.974 173.809 527.795 177.685 527.795C181.561 527.795 184.703 530.974 184.703 534.896V555.203C184.703 559.125 181.561 562.304 177.685 562.304C173.809 562.304 170.667 559.125 170.667 555.203V534.896Z" fill="url(#paint27_linear_11_127)"/>
<path d="M170.667 496.537C170.667 492.615 173.809 489.436 177.685 489.436C181.561 489.436 184.703 492.615 184.703 496.537V517.376C184.703 521.297 181.561 524.477 177.685 524.477C173.809 524.477 170.667 521.297 170.667 517.376V496.537Z" fill="url(#paint28_linear_11_127)"/>
<path d="M189.688 481.804C189.688 477.882 192.83 474.703 196.706 474.703C200.582 474.703 203.724 477.882 203.724 481.804V540.603C203.724 544.525 200.582 547.704 196.706 547.704C192.83 547.704 189.688 544.525 189.688 540.603V481.804Z" fill="url(#paint29_linear_11_127)"/>
<path d="M208.447 467.403C208.447 463.445 211.618 460.236 215.531 460.236C219.443 460.236 222.614 463.445 222.614 467.403V496.736C222.614 500.695 219.443 503.904 215.531 503.904C211.618 503.904 208.447 500.695 208.447 496.736V467.403Z" fill="url(#paint30_linear_11_127)"/>
<path d="M208.447 515.186C208.447 511.227 211.618 508.018 215.531 508.018C219.443 508.018 222.614 511.227 222.614 515.186V526.069C222.614 530.028 219.443 533.237 215.531 533.237C211.618 533.237 208.447 530.028 208.447 526.069V515.186Z" fill="url(#paint31_linear_11_127)"/>
<path d="M227.468 452.803C227.468 448.844 230.64 445.635 234.552 445.635C238.464 445.635 241.636 448.844 241.636 452.803V511.336C241.636 515.295 238.464 518.504 234.552 518.504C230.64 518.504 227.468 515.295 227.468 511.336V452.803Z" fill="url(#paint32_linear_11_127)"/>
<path d="M246.489 438.07C246.489 434.111 249.661 430.902 253.573 430.902C257.485 430.902 260.657 434.111 260.657 438.07V496.736C260.657 500.695 257.485 503.904 253.573 503.904C249.661 503.904 246.489 500.695 246.489 496.736V438.07Z" fill="url(#paint33_linear_11_127)"/>
<path d="M1024 627.74C1024 623.855 1020.89 620.705 1017.05 620.705C1013.21 620.705 1010.09 623.855 1010.09 627.74V628.271C1010.09 632.156 1013.21 635.306 1017.05 635.306C1020.89 635.306 1024 632.156 1024 628.271V627.74Z" fill="url(#paint34_linear_11_127)"/>
<path d="M1004.98 613.14C1004.98 609.255 1001.87 606.105 998.026 606.105C994.186 606.105 991.073 609.255 991.073 613.14V642.738C991.073 646.624 994.186 649.773 998.026 649.773C1001.87 649.773 1004.98 646.624 1004.98 642.738V613.14Z" fill="url(#paint35_linear_11_127)"/>
<path d="M986.089 598.606C986.089 594.684 982.946 591.505 979.07 591.505C975.194 591.505 972.052 594.684 972.052 598.606V629.399C972.052 633.321 975.194 636.5 979.07 636.5C982.946 636.5 986.089 633.321 986.089 629.399V598.606Z" fill="url(#paint36_linear_11_127)"/>
<path d="M986.089 645.725C986.089 641.803 982.946 638.624 979.07 638.624C975.194 638.624 972.052 641.803 972.052 645.725V657.405C972.052 661.327 975.194 664.506 979.07 664.506C982.946 664.506 986.089 661.327 986.089 657.405V645.725Z" fill="url(#paint37_linear_11_127)"/>
<path d="M967.067 583.939C967.067 580.054 963.955 576.905 960.115 576.905C956.275 576.905 953.162 580.054 953.162 583.939V671.939C953.162 675.824 956.275 678.974 960.115 678.974C963.955 678.974 967.067 675.824 967.067 671.939V583.939Z" fill="url(#paint38_linear_11_127)"/>
<path d="M948.177 569.405C948.177 565.484 945.035 562.304 941.159 562.304C937.283 562.304 934.141 565.484 934.141 569.405V600.331C934.141 604.253 937.283 607.432 941.159 607.432C945.035 607.432 948.177 604.253 948.177 600.331V569.405Z" fill="url(#paint39_linear_11_127)"/>
<path d="M948.177 616.79C948.177 612.868 945.035 609.689 941.159 609.689C937.283 609.689 934.141 612.868 934.141 616.79V686.473C934.141 690.395 937.283 693.574 941.159 693.574C945.035 693.574 948.177 690.395 948.177 686.473V616.79Z" fill="url(#paint40_linear_11_127)"/>
<path d="M929.156 554.805C929.156 550.883 926.014 547.704 922.138 547.704C918.262 547.704 915.12 550.883 915.12 554.805V613.604C915.12 617.526 918.262 620.705 922.138 620.705C926.014 620.705 929.156 617.526 929.156 613.604V554.805Z" fill="url(#paint41_linear_11_127)"/>
<path d="M929.156 642.407C929.156 638.485 926.014 635.306 922.138 635.306C918.262 635.306 915.12 638.485 915.12 642.407V670.811C915.12 674.732 918.262 677.912 922.138 677.912C926.014 677.912 929.156 674.732 929.156 670.811V642.407Z" fill="url(#paint42_linear_11_127)"/>
<path d="M929.156 687.667C929.156 683.746 926.014 680.566 922.138 680.566C918.262 680.566 915.12 683.746 915.12 687.667V701.073C915.12 704.995 918.262 708.174 922.138 708.174C926.014 708.174 929.156 704.995 929.156 701.073V687.667Z" fill="url(#paint43_linear_11_127)"/>
<path d="M910.135 656.808C910.135 652.923 907.022 649.773 903.182 649.773C899.342 649.773 896.23 652.923 896.23 656.808V715.872C896.23 719.757 899.342 722.907 903.182 722.907C907.022 722.907 910.135 719.757 910.135 715.872V656.808Z" fill="url(#paint44_linear_11_127)"/>
<path d="M891.245 701.737C891.245 697.815 888.102 694.636 884.226 694.636C880.35 694.636 877.208 697.815 877.208 701.737V730.141C877.208 734.062 880.35 737.242 884.226 737.242C888.102 737.242 891.245 734.062 891.245 730.141V701.737Z" fill="url(#paint45_linear_11_127)"/>
<path d="M891.245 671.607C891.245 667.685 888.102 664.506 884.226 664.506C880.35 664.506 877.208 667.685 877.208 671.607V684.349C877.208 688.271 880.35 691.45 884.226 691.45C888.102 691.45 891.245 688.271 891.245 684.349V671.607Z" fill="url(#paint46_linear_11_127)"/>
<path d="M872.223 686.008C872.223 682.123 869.111 678.974 865.271 678.974C861.431 678.974 858.318 682.123 858.318 686.008V744.94C858.318 748.825 861.431 751.975 865.271 751.975C869.111 751.975 872.223 748.825 872.223 744.94V686.008Z" fill="url(#paint47_linear_11_127)"/>
<path d="M853.464 700.741C853.464 696.783 850.293 693.574 846.381 693.574C842.468 693.574 839.297 696.783 839.297 700.741V759.407C839.297 763.366 842.468 766.575 846.381 766.575C850.293 766.575 853.464 763.366 853.464 759.407V700.741Z" fill="url(#paint48_linear_11_127)"/>
<path d="M834.443 715.275C834.443 711.353 831.301 708.174 827.425 708.174C823.549 708.174 820.407 711.353 820.407 715.275V719.522C820.407 723.444 823.549 726.623 827.425 726.623C831.301 726.623 834.443 723.444 834.443 719.522V715.275Z" fill="url(#paint49_linear_11_127)"/>
<path d="M834.443 735.715C834.443 731.794 831.301 728.614 827.425 728.614C823.549 728.614 820.407 731.794 820.407 735.715V749.386C820.407 753.308 823.549 756.487 827.425 756.487C831.301 756.487 834.443 753.308 834.443 749.386V735.715Z" fill="url(#paint50_linear_11_127)"/>
<path d="M834.443 765.978C834.443 762.056 831.301 758.877 827.425 758.877C823.549 758.877 820.407 762.056 820.407 765.978V774.074C820.407 777.996 823.549 781.175 827.425 781.175C831.301 781.175 834.443 777.996 834.443 774.074V765.978Z" fill="url(#paint51_linear_11_127)"/>
<path d="M815.553 730.074C815.553 726.116 812.382 722.907 808.469 722.907C804.557 722.907 801.386 726.116 801.386 730.074V788.475C801.386 792.434 804.557 795.643 808.469 795.643C812.382 795.643 815.553 792.434 815.553 788.475V730.074Z" fill="url(#paint52_linear_11_127)"/>
<path d="M796.532 744.409C796.532 740.451 793.36 737.242 789.448 737.242C785.536 737.242 782.364 740.451 782.364 744.409V759.407C782.364 763.366 785.536 766.575 789.448 766.575C793.36 766.575 796.532 763.366 796.532 759.407V744.409Z" fill="url(#paint53_linear_11_127)"/>
<path d="M796.532 775.6C796.532 771.642 793.36 768.433 789.448 768.433C785.536 768.433 782.364 771.642 782.364 775.6V803.208C782.364 807.167 785.536 810.376 789.448 810.376C793.36 810.376 796.532 807.167 796.532 803.208V775.6Z" fill="url(#paint54_linear_11_127)"/>
<path d="M777.511 759.076C777.511 755.154 774.368 751.975 770.492 751.975C766.616 751.975 763.474 755.154 763.474 759.076V817.742C763.474 821.664 766.616 824.843 770.492 824.843C774.368 824.843 777.511 821.664 777.511 817.742V759.076Z" fill="url(#paint55_linear_11_127)"/>
<path d="M910.135 540.271C910.135 536.386 907.022 533.237 903.182 533.237C899.342 533.237 896.23 536.386 896.23 540.271V557.526C896.23 561.411 899.342 564.561 903.182 564.561C907.022 564.561 910.135 561.411 910.135 557.526V540.271Z" fill="url(#paint56_linear_11_127)"/>
<path d="M910.135 574.648C910.135 570.763 907.022 567.614 903.182 567.614C899.342 567.614 896.23 570.763 896.23 574.648V599.07C896.23 602.956 899.342 606.105 903.182 606.105C907.022 606.105 910.135 602.956 910.135 599.07V574.648Z" fill="url(#paint57_linear_11_127)"/>
<path d="M891.245 525.605C891.245 521.683 888.102 518.504 884.226 518.504C880.35 518.504 877.208 521.683 877.208 525.605V584.404C877.208 588.326 880.35 591.505 884.226 591.505C888.102 591.505 891.245 588.326 891.245 584.404V525.605Z" fill="url(#paint58_linear_11_127)"/>
<path d="M872.223 510.938C872.223 507.053 869.111 503.904 865.271 503.904C861.431 503.904 858.318 507.053 858.318 510.938V569.87C858.318 573.755 861.431 576.905 865.271 576.905C869.111 576.905 872.223 573.755 872.223 569.87V510.938Z" fill="url(#paint59_linear_11_127)"/>
<path d="M853.464 496.603C853.464 492.645 850.293 489.436 846.381 489.436C842.468 489.436 839.297 492.645 839.297 496.603V507.62C839.297 511.578 842.468 514.787 846.381 514.787C850.293 514.787 853.464 511.578 853.464 507.62V496.603Z" fill="url(#paint60_linear_11_127)"/>
<path d="M853.464 525.671C853.464 521.713 850.293 518.504 846.381 518.504C842.468 518.504 839.297 521.713 839.297 525.671V555.137C839.297 559.096 842.468 562.304 846.381 562.304C850.293 562.304 853.464 559.096 853.464 555.137V525.671Z" fill="url(#paint61_linear_11_127)"/>
<path d="M834.443 481.804C834.443 477.882 831.301 474.703 827.425 474.703C823.549 474.703 820.407 477.882 820.407 481.804V520.03C820.407 523.952 823.549 527.131 827.425 527.131C831.301 527.131 834.443 523.952 834.443 520.03V481.804Z" fill="url(#paint62_linear_11_127)"/>
<path d="M834.443 537.816C834.443 533.894 831.301 530.715 827.425 530.715C823.549 530.715 820.407 533.894 820.407 537.816V540.603C820.407 544.525 823.549 547.704 827.425 547.704C831.301 547.704 834.443 544.525 834.443 540.603V537.816Z" fill="url(#paint63_linear_11_127)"/>
<path d="M815.553 467.403C815.553 463.445 812.382 460.236 808.469 460.236C804.557 460.236 801.386 463.445 801.386 467.403V526.069C801.386 530.028 804.557 533.237 808.469 533.237C812.382 533.237 815.553 530.028 815.553 526.069V467.403Z" fill="url(#paint64_linear_11_127)"/>
<path d="M796.532 452.803C796.532 448.844 793.36 445.635 789.448 445.635C785.536 445.635 782.364 448.844 782.364 452.803V468.996C782.364 472.954 785.536 476.163 789.448 476.163C793.36 476.163 796.532 472.954 796.532 468.996V452.803Z" fill="url(#paint65_linear_11_127)"/>
<path d="M796.532 486.516C796.532 482.558 793.36 479.349 789.448 479.349C785.536 479.349 782.364 482.558 782.364 486.516V511.336C782.364 515.295 785.536 518.504 789.448 518.504C793.36 518.504 796.532 515.295 796.532 511.336V486.516Z" fill="url(#paint66_linear_11_127)"/>
<path d="M777.511 438.003C777.511 434.082 774.368 430.902 770.492 430.902C766.616 430.902 763.474 434.082 763.474 438.003V496.803C763.474 500.724 766.616 503.904 770.492 503.904C774.368 503.904 777.511 500.724 777.511 496.803V438.003Z" fill="url(#paint67_linear_11_127)"/>
<path d="M62.2921 4.27267C67.7766 -1.42422 76.6687 -1.42422 82.1531 4.27267C87.6376 9.96955 87.6376 19.206 82.1531 24.9029C76.6687 30.5998 67.7766 30.5998 62.2921 24.9029C56.8077 19.206 56.8077 9.96955 62.2921 4.27267Z" fill="url(#paint68_linear_11_127)"/>
<path d="M117.128 4.27267C122.612 -1.42422 131.504 -1.42422 136.989 4.27267C142.473 9.96955 142.473 19.206 136.989 24.9029L85.9793 77.8882C80.4948 83.5851 71.6027 83.5851 66.1183 77.8882C60.6338 72.1913 60.6338 62.9548 66.1183 57.258L117.128 4.27267Z" fill="url(#paint69_linear_11_127)"/>
<path d="M175.672 4.27266C181.156 -1.42422 190.048 -1.42422 195.533 4.27267C201.017 9.96955 201.017 19.206 195.533 24.9029L98.8271 125.354C93.3426 131.051 84.4505 131.051 78.9661 125.354C73.4816 119.657 73.4816 110.421 78.9661 104.724L175.672 4.27266Z" fill="url(#paint70_linear_11_127)"/>
<path d="M233.075 4.27266C238.559 -1.42422 247.451 -1.42422 252.936 4.27267C258.42 9.96955 258.42 19.206 252.936 24.9029L117.948 165.119C112.463 170.816 103.571 170.816 98.0866 165.119C92.6022 159.422 92.6022 150.186 98.0866 144.489L233.075 4.27266Z" fill="url(#paint71_linear_11_127)"/>
<path d="M291.147 4.27268C296.632 -1.4242 305.524 -1.42422 311.008 4.27267C316.493 9.96955 316.493 19.206 311.008 24.9029L155.88 186.039C150.396 191.736 141.504 191.736 136.019 186.039C130.535 180.342 130.535 171.106 136.019 165.409L291.147 4.27268Z" fill="url(#paint72_linear_11_127)"/>
<path d="M349.219 4.27268C354.704 -1.42421 363.596 -1.42422 369.08 4.27267C374.565 9.96955 374.565 19.206 369.08 24.9029L300.601 96.035C295.116 101.732 286.224 101.732 280.74 96.035C275.255 90.3381 275.255 81.1017 280.74 75.4048L349.219 4.27268Z" fill="url(#paint73_linear_11_127)"/>
<path d="M250.07 107.262C255.554 101.566 264.446 101.566 269.931 107.262C275.415 112.959 275.415 122.196 269.931 127.893L250.777 147.788C245.293 153.485 236.401 153.485 230.916 147.788C225.432 142.091 225.432 132.855 230.916 127.158L250.07 107.262Z" fill="url(#paint74_linear_11_127)"/>
<path d="M201.407 157.811C206.891 152.114 215.783 152.114 221.268 157.811C226.752 163.507 226.752 172.744 221.268 178.441L200.999 199.495C195.514 205.192 186.622 205.192 181.138 199.495C175.653 193.798 175.653 184.561 181.138 178.865L201.407 157.811Z" fill="url(#paint75_linear_11_127)"/>
<path d="M407.292 4.27267C412.776 -1.42422 421.668 -1.42422 427.153 4.27267C432.637 9.96955 432.637 19.206 427.153 24.9029L254.392 204.355C248.907 210.052 240.015 210.052 234.531 204.355C229.046 198.658 229.046 189.422 234.531 183.725L407.292 4.27267Z" fill="url(#paint76_linear_11_127)"/>
<path d="M365.793 107.7C371.278 102.003 380.17 102.003 385.654 107.7C391.139 113.396 391.139 122.633 385.654 128.33L312.464 204.355C306.979 210.052 298.087 210.052 292.603 204.355C287.118 198.658 287.118 189.422 292.603 183.725L365.793 107.7Z" fill="url(#paint77_linear_11_127)"/>
<path d="M465.285 4.35394C470.77 -1.34294 479.662 -1.34295 485.146 4.35394C490.631 10.0508 490.631 19.2873 485.146 24.9842L415.786 97.0312C410.301 102.728 401.409 102.728 395.925 97.0312C390.44 91.3343 390.44 82.0979 395.925 76.401L465.285 4.35394Z" fill="url(#paint78_linear_11_127)"/>
<path d="M523.436 4.27267C528.921 -1.42422 537.813 -1.42422 543.297 4.27267C548.782 9.96955 548.782 19.206 543.297 24.9029L370.536 204.355C365.052 210.052 356.16 210.052 350.675 204.355C345.191 198.658 345.191 189.422 350.675 183.725L523.436 4.27267Z" fill="url(#paint79_linear_11_127)"/>
<path d="M581.508 4.27266C586.993 -1.42422 595.885 -1.42422 601.369 4.27267C606.854 9.96955 606.854 19.206 601.369 24.9029L470.818 160.511C465.333 166.208 456.441 166.208 450.957 160.511C445.472 154.814 445.472 145.577 450.957 139.881L581.508 4.27266Z" fill="url(#paint80_linear_11_127)"/>
<path d="M422.518 169.421C428.002 163.724 436.894 163.724 442.379 169.421C447.863 175.118 447.863 184.354 442.379 190.051L406.416 227.407C400.931 233.104 392.039 233.104 386.555 227.407C381.07 221.71 381.07 212.474 386.555 206.777L422.518 169.421Z" fill="url(#paint81_linear_11_127)"/>
<path d="M556.338 90.7395C561.823 85.0426 570.715 85.0426 576.199 90.7395C581.684 96.4363 581.684 105.673 576.199 111.37L409.645 284.375C404.161 290.072 395.269 290.072 389.784 284.375C384.3 278.678 384.3 269.441 389.784 263.744L556.338 90.7395Z" fill="url(#paint82_linear_11_127)"/>
<path d="M639.581 4.27268C645.065 -1.4242 653.957 -1.42422 659.442 4.27267C664.926 9.96955 664.926 19.206 659.442 24.9029L605.607 80.8225C600.123 86.5194 591.231 86.5194 585.746 80.8225C580.262 75.1257 580.262 65.8892 585.746 60.1923L639.581 4.27268Z" fill="url(#paint83_linear_11_127)"/>
<path d="M697.653 4.27269C703.138 -1.4242 712.03 -1.42422 717.514 4.27267C722.999 9.96955 722.999 19.206 717.514 24.9029L411.294 342.983C405.81 348.68 396.918 348.68 391.433 342.983C385.949 337.286 385.949 328.05 391.433 322.353L697.653 4.27269Z" fill="url(#paint84_linear_11_127)"/>
<path d="M519.268 249.889C524.752 244.192 533.644 244.192 539.129 249.889C544.613 255.586 544.613 264.822 539.129 270.519L413.997 400.497C408.513 406.194 399.62 406.194 394.136 400.497C388.651 394.8 388.652 385.564 394.136 379.867L519.268 249.889Z" fill="url(#paint85_linear_11_127)"/>
<path d="M755.726 4.27267C761.21 -1.42422 770.102 -1.42422 775.587 4.27267C781.071 9.96955 781.071 19.206 775.587 24.9029L717.143 85.6105C711.658 91.3074 702.766 91.3074 697.282 85.6105C691.797 79.9136 691.797 70.6772 697.282 64.9803L755.726 4.27267Z" fill="url(#paint86_linear_11_127)"/>
<path d="M669.363 93.9798C674.847 88.2829 683.739 88.2829 689.224 93.9798C694.708 99.6767 694.708 108.913 689.224 114.61L570.134 238.312C564.65 244.009 555.757 244.009 550.273 238.312C544.789 232.615 544.789 223.379 550.273 217.682L669.363 93.9798Z" fill="url(#paint87_linear_11_127)"/>
<path d="M596.118 228.925C601.603 223.228 610.495 223.228 615.979 228.925C621.464 234.621 621.464 243.858 615.979 249.555L418.201 454.993C412.717 460.69 403.825 460.69 398.34 454.993C392.856 449.296 392.856 440.059 398.34 434.363L596.118 228.925Z" fill="url(#paint88_linear_11_127)"/>
<path d="M596.058 288.151C601.542 282.454 610.434 282.454 615.919 288.151C621.403 293.848 621.403 303.084 615.919 308.781L494.525 434.877C489.04 440.574 480.148 440.574 474.664 434.877C469.179 429.18 469.179 419.943 474.664 414.247L596.058 288.151Z" fill="url(#paint89_linear_11_127)"/>
<path d="M447.645 442.312C453.13 436.615 462.022 436.615 467.506 442.312C472.991 448.008 472.991 457.245 467.506 462.942L418.141 514.219C412.656 519.916 403.764 519.916 398.28 514.219C392.795 508.522 392.795 499.286 398.28 493.589L447.645 442.312Z" fill="url(#paint90_linear_11_127)"/>
<path d="M595.998 347.377C601.482 341.68 610.374 341.68 615.859 347.377C621.343 353.074 621.343 362.311 615.859 368.008L418.081 573.446C412.596 579.142 403.704 579.142 398.22 573.446C392.735 567.749 392.735 558.512 398.22 552.815L595.998 347.377Z" fill="url(#paint91_linear_11_127)"/>
<path d="M595.938 406.604C601.422 400.907 610.314 400.907 615.799 406.604C621.283 412.301 621.283 421.537 615.799 427.234L579.093 465.362C573.608 471.058 564.716 471.058 559.232 465.362C553.747 459.665 553.747 450.428 559.232 444.731L595.938 406.604Z" fill="url(#paint92_linear_11_127)"/>
<path d="M527.001 478.21C532.485 472.513 541.377 472.513 546.862 478.21C552.346 483.907 552.346 493.144 546.862 498.84L418.02 632.672C412.536 638.369 403.644 638.369 398.159 632.672C392.675 626.975 392.675 617.739 398.159 612.042L527.001 478.21Z" fill="url(#paint93_linear_11_127)"/>
<path d="M595.877 465.83C601.361 460.133 610.253 460.133 615.738 465.83C621.222 471.527 621.222 480.763 615.738 486.46L529.878 575.646C524.393 581.343 515.501 581.343 510.017 575.646C504.532 569.949 504.532 560.712 510.017 555.015L595.877 465.83Z" fill="url(#paint94_linear_11_127)"/>
<path d="M480.456 585.721C485.941 580.025 494.833 580.025 500.317 585.721C505.802 591.418 505.802 600.655 500.317 606.352L417.96 691.898C412.476 697.595 403.584 697.595 398.099 691.898C392.615 686.201 392.615 676.965 398.099 671.268L480.456 585.721Z" fill="url(#paint95_linear_11_127)"/>
<path d="M595.816 525.056C601.301 519.36 610.193 519.36 615.677 525.056C621.162 530.753 621.162 539.99 615.677 545.687L417.899 751.125C412.415 756.822 403.523 756.822 398.038 751.125C392.554 745.428 392.554 736.191 398.038 730.494L595.816 525.056Z" fill="url(#paint96_linear_11_127)"/>
<path d="M595.756 584.283C601.241 578.586 610.133 578.586 615.617 584.283C621.102 589.98 621.102 599.216 615.617 604.913L525.869 698.138C520.384 703.835 511.492 703.835 506.008 698.138C500.523 692.441 500.523 683.204 506.008 677.507L595.756 584.283Z" fill="url(#paint97_linear_11_127)"/>
<path d="M478.898 705.667C484.382 699.97 493.274 699.97 498.759 705.667C504.243 711.364 504.243 720.601 498.759 726.297L417.84 810.351C412.355 816.048 403.463 816.048 397.979 810.351C392.494 804.654 392.494 795.417 397.979 789.721L478.898 705.667Z" fill="url(#paint98_linear_11_127)"/>
<path d="M595.696 643.509C601.18 637.812 610.072 637.812 615.557 643.509C621.041 649.206 621.041 658.442 615.557 664.139L417.779 869.577C412.295 875.274 403.403 875.274 397.918 869.577C392.434 863.88 392.434 854.644 397.918 848.947L595.696 643.509Z" fill="url(#paint99_linear_11_127)"/>
<path d="M595.636 702.736C601.12 697.039 610.012 697.039 615.497 702.736C620.981 708.432 620.981 717.669 615.497 723.366L586.306 753.687C580.822 759.384 571.929 759.384 566.445 753.687C560.961 747.99 560.961 738.754 566.445 733.057L595.636 702.736Z" fill="url(#paint100_linear_11_127)"/>
<path d="M539.148 761.411C544.632 755.715 553.524 755.715 559.009 761.411C564.493 767.108 564.493 776.345 559.009 782.042L417.719 928.804C412.234 934.501 403.342 934.501 397.858 928.804C392.373 923.107 392.373 913.87 397.858 908.174L539.148 761.411Z" fill="url(#paint101_linear_11_127)"/>
<path d="M807.933 10.3649C813.417 4.66799 822.309 4.66798 827.794 10.3649C833.278 16.0617 833.278 25.2982 827.794 30.9951L660.898 204.355C655.413 210.052 646.521 210.052 641.037 204.355C635.552 198.658 635.552 189.422 641.037 183.725L807.933 10.3649Z" fill="url(#paint102_linear_11_127)"/>
<path d="M738.716 142.584C744.2 136.887 753.092 136.887 758.577 142.584C764.061 148.281 764.061 157.518 758.577 163.214L718.97 204.355C713.485 210.052 704.593 210.052 699.109 204.355C693.624 198.658 693.624 189.422 699.109 183.725L738.716 142.584Z" fill="url(#paint103_linear_11_127)"/>
<path d="M852.366 24.5316C857.851 18.8348 866.743 18.8348 872.227 24.5316C877.712 30.2285 877.712 39.465 872.227 45.1619L788.912 131.704C783.427 137.401 774.535 137.401 769.051 131.704C763.566 126.007 763.566 116.771 769.051 111.074L852.366 24.5316Z" fill="url(#paint104_linear_11_127)"/>
<path d="M884.482 51.4936C889.966 45.7967 898.858 45.7967 904.343 51.4936C909.827 57.1905 909.827 66.4269 904.343 72.1238L777.042 204.355C771.558 210.052 762.665 210.052 757.181 204.355C751.697 198.658 751.697 189.422 757.181 183.725L884.482 51.4936Z" fill="url(#paint105_linear_11_127)"/>
<path d="M921.461 232.641C915.977 238.338 907.085 238.338 901.6 232.641C896.116 226.944 896.116 217.708 901.6 212.011L928.762 183.797C934.247 178.1 943.139 178.1 948.623 183.797C954.108 189.494 954.108 198.73 948.623 204.427L921.461 232.641Z" fill="url(#paint106_linear_11_127)"/>
<path d="M882.356 216.301C876.871 221.998 867.979 221.998 862.495 216.301C857.01 210.605 857.01 201.368 862.495 195.671L885.099 172.192C890.583 166.495 899.475 166.495 904.96 172.192C910.444 177.889 910.444 187.125 904.96 192.822L882.356 216.301Z" fill="url(#paint107_linear_11_127)"/>
<path d="M932.319 164.403C926.834 170.1 917.942 170.1 912.458 164.403C906.973 158.706 906.973 149.47 912.458 143.773L921.332 134.555C926.817 128.858 935.709 128.858 941.193 134.555C946.678 140.251 946.678 149.488 941.193 155.185L932.319 164.403Z" fill="url(#paint108_linear_11_127)"/>
<path d="M874.299 163.859C868.814 169.556 859.922 169.556 854.438 163.859C848.953 158.162 848.953 148.926 854.438 143.229L906.089 89.5764C911.574 83.8795 920.466 83.8795 925.95 89.5764C931.435 95.2733 931.435 104.51 925.95 110.207L874.299 163.859Z" fill="url(#paint109_linear_11_127)"/>
<path d="M831.527 208.288C826.042 213.984 817.15 213.984 811.666 208.288C806.181 202.591 806.181 193.354 811.666 187.657L827.862 170.834C833.346 165.137 842.239 165.137 847.723 170.834C853.207 176.531 853.207 185.767 847.723 191.464L831.527 208.288Z" fill="url(#paint110_linear_11_127)"/>
<path d="M616.383 1019.73C621.868 1014.03 621.868 1004.79 616.383 999.097C610.899 993.4 602.007 993.4 596.522 999.097C591.038 1004.79 591.038 1014.03 596.522 1019.73C602.007 1025.42 610.899 1025.42 616.383 1019.73Z" fill="url(#paint111_linear_11_127)"/>
<path d="M616.383 962.768C621.868 957.071 621.868 947.835 616.383 942.138C610.899 936.441 602.007 936.441 596.522 942.138L545.512 995.123C540.028 1000.82 540.028 1010.06 545.512 1015.75C550.997 1021.45 559.889 1021.45 565.373 1015.75L616.383 962.768Z" fill="url(#paint112_linear_11_127)"/>
<path d="M538.706 982.642C544.19 976.945 544.19 967.709 538.706 962.012C533.221 956.315 524.329 956.315 518.845 962.012L491.31 990.613C485.826 996.31 485.826 1005.55 491.31 1011.24C496.794 1016.94 505.687 1016.94 511.171 1011.24L538.706 982.642Z" fill="url(#paint113_linear_11_127)"/>
<path d="M616.383 901.956C621.868 896.26 621.868 887.023 616.383 881.326C610.899 875.629 602.007 875.629 596.522 881.326L544.655 935.202C539.171 940.899 539.17 950.136 544.655 955.832C550.139 961.529 559.031 961.529 564.516 955.832L616.383 901.956Z" fill="url(#paint114_linear_11_127)"/>
<path d="M616.383 842.33C621.868 836.634 621.868 827.397 616.383 821.7C610.899 816.003 602.007 816.003 596.522 821.7L450.374 973.509C444.89 979.205 444.89 988.442 450.374 994.139C455.859 999.836 464.751 999.836 470.235 994.139L616.383 842.33Z" fill="url(#paint115_linear_11_127)"/>
<path d="M527.446 874.391C532.93 868.694 532.93 859.458 527.446 853.761C521.961 848.064 513.069 848.064 507.585 853.761L417.631 947.199C412.146 952.896 412.146 962.132 417.631 967.829C423.115 973.526 432.007 973.526 437.492 967.829L527.446 874.391Z" fill="url(#paint116_linear_11_127)"/>
<path d="M616.383 782.009C621.868 776.312 621.868 767.075 616.383 761.379C610.899 755.682 602.007 755.682 596.522 761.379L533.766 826.565C528.282 832.262 528.282 841.498 533.766 847.195C539.251 852.892 548.143 852.892 553.627 847.195L616.383 782.009Z" fill="url(#paint117_linear_11_127)"/>
<path d="M937.564 231.259C943.048 225.562 951.94 225.562 957.425 231.259C962.909 236.956 962.909 246.192 957.425 251.889C951.94 257.586 943.048 257.586 937.564 251.889C932.079 246.192 932.079 236.956 937.564 231.259Z" fill="url(#paint118_linear_11_127)"/>
<defs>
<linearGradient id="paint0_linear_11_127" x1="96.6709" y1="-499.328" x2="993.676" y2="1465.63" gradientUnits="userSpaceOnUse">
<stop stop-color="#A6E7F0"/>
<stop offset="1" stop-color="#1C61CA"/>
</linearGradient>
<linearGradient id="paint1_linear_11_127" x1="96.6709" y1="-499.328" x2="993.676" y2="1465.63" gradientUnits="userSpaceOnUse">
<stop stop-color="#A6E7F0"/>
<stop offset="1" stop-color="#1C61CA"/>
</linearGradient>
<linearGradient id="paint2_linear_11_127" x1="96.6709" y1="-499.328" x2="993.676" y2="1465.63" gradientUnits="userSpaceOnUse">
<stop stop-color="#A6E7F0"/>
<stop offset="1" stop-color="#1C61CA"/>
</linearGradient>
<linearGradient id="paint3_linear_11_127" x1="96.6709" y1="-499.328" x2="993.676" y2="1465.63" gradientUnits="userSpaceOnUse">
<stop stop-color="#A6E7F0"/>
<stop offset="1" stop-color="#1C61CA"/>
</linearGradient>
<linearGradient id="paint4_linear_11_127" x1="96.6709" y1="-499.328" x2="993.676" y2="1465.63" gradientUnits="userSpaceOnUse">
<stop stop-color="#A6E7F0"/>
<stop offset="1" stop-color="#1C61CA"/>
</linearGradient>
<linearGradient id="paint5_linear_11_127" x1="96.6709" y1="-499.328" x2="993.676" y2="1465.63" gradientUnits="userSpaceOnUse">
<stop stop-color="#A6E7F0"/>
<stop offset="1" stop-color="#1C61CA"/>
</linearGradient>
<linearGradient id="paint6_linear_11_127" x1="96.6709" y1="-499.328" x2="993.676" y2="1465.63" gradientUnits="userSpaceOnUse">
<stop stop-color="#A6E7F0"/>
<stop offset="1" stop-color="#1C61CA"/>
</linearGradient>
<linearGradient id="paint7_linear_11_127" x1="96.6709" y1="-499.328" x2="993.676" y2="1465.63" gradientUnits="userSpaceOnUse">
<stop stop-color="#A6E7F0"/>
<stop offset="1" stop-color="#1C61CA"/>
</linearGradient>
<linearGradient id="paint8_linear_11_127" x1="96.6709" y1="-499.328" x2="993.676" y2="1465.63" gradientUnits="userSpaceOnUse">
<stop stop-color="#A6E7F0"/>
<stop offset="1" stop-color="#1C61CA"/>
</linearGradient>
<linearGradient id="paint9_linear_11_127" x1="96.6709" y1="-499.328" x2="993.676" y2="1465.63" gradientUnits="userSpaceOnUse">
<stop stop-color="#A6E7F0"/>
<stop offset="1" stop-color="#1C61CA"/>
</linearGradient>
<linearGradient id="paint10_linear_11_127" x1="96.6709" y1="-499.328" x2="993.676" y2="1465.63" gradientUnits="userSpaceOnUse">
<stop stop-color="#A6E7F0"/>
<stop offset="1" stop-color="#1C61CA"/>
</linearGradient>
<linearGradient id="paint11_linear_11_127" x1="96.6709" y1="-499.328" x2="993.676" y2="1465.63" gradientUnits="userSpaceOnUse">
<stop stop-color="#A6E7F0"/>
<stop offset="1" stop-color="#1C61CA"/>
</linearGradient>
<linearGradient id="paint12_linear_11_127" x1="96.6709" y1="-499.328" x2="993.676" y2="1465.63" gradientUnits="userSpaceOnUse">
<stop stop-color="#A6E7F0"/>
<stop offset="1" stop-color="#1C61CA"/>
</linearGradient>
<linearGradient id="paint13_linear_11_127" x1="96.6709" y1="-499.328" x2="993.676" y2="1465.63" gradientUnits="userSpaceOnUse">
<stop stop-color="#A6E7F0"/>
<stop offset="1" stop-color="#1C61CA"/>
</linearGradient>
<linearGradient id="paint14_linear_11_127" x1="96.6709" y1="-499.328" x2="993.676" y2="1465.63" gradientUnits="userSpaceOnUse">
<stop stop-color="#A6E7F0"/>
<stop offset="1" stop-color="#1C61CA"/>
</linearGradient>
<linearGradient id="paint15_linear_11_127" x1="96.6709" y1="-499.328" x2="993.676" y2="1465.63" gradientUnits="userSpaceOnUse">
<stop stop-color="#A6E7F0"/>
<stop offset="1" stop-color="#1C61CA"/>
</linearGradient>
<linearGradient id="paint16_linear_11_127" x1="96.6709" y1="-499.328" x2="993.676" y2="1465.63" gradientUnits="userSpaceOnUse">
<stop stop-color="#A6E7F0"/>
<stop offset="1" stop-color="#1C61CA"/>
</linearGradient>
<linearGradient id="paint17_linear_11_127" x1="96.6709" y1="-499.328" x2="993.676" y2="1465.63" gradientUnits="userSpaceOnUse">
<stop stop-color="#A6E7F0"/>
<stop offset="1" stop-color="#1C61CA"/>
</linearGradient>
<linearGradient id="paint18_linear_11_127" x1="96.6709" y1="-499.328" x2="993.676" y2="1465.63" gradientUnits="userSpaceOnUse">
<stop stop-color="#A6E7F0"/>
<stop offset="1" stop-color="#1C61CA"/>
</linearGradient>
<linearGradient id="paint19_linear_11_127" x1="96.6709" y1="-499.328" x2="993.676" y2="1465.63" gradientUnits="userSpaceOnUse">
<stop stop-color="#A6E7F0"/>
<stop offset="1" stop-color="#1C61CA"/>
</linearGradient>
<linearGradient id="paint20_linear_11_127" x1="96.6709" y1="-499.328" x2="993.676" y2="1465.63" gradientUnits="userSpaceOnUse">
<stop stop-color="#A6E7F0"/>
<stop offset="1" stop-color="#1C61CA"/>
</linearGradient>
<linearGradient id="paint21_linear_11_127" x1="96.6709" y1="-499.328" x2="993.676" y2="1465.63" gradientUnits="userSpaceOnUse">
<stop stop-color="#A6E7F0"/>
<stop offset="1" stop-color="#1C61CA"/>
</linearGradient>
<linearGradient id="paint22_linear_11_127" x1="96.6709" y1="-499.328" x2="993.676" y2="1465.63" gradientUnits="userSpaceOnUse">
<stop stop-color="#A6E7F0"/>
<stop offset="1" stop-color="#1C61CA"/>
</linearGradient>
<linearGradient id="paint23_linear_11_127" x1="96.6709" y1="-499.328" x2="993.676" y2="1465.63" gradientUnits="userSpaceOnUse">
<stop stop-color="#A6E7F0"/>
<stop offset="1" stop-color="#1C61CA"/>
</linearGradient>
<linearGradient id="paint24_linear_11_127" x1="96.6709" y1="-499.328" x2="993.676" y2="1465.63" gradientUnits="userSpaceOnUse">
<stop stop-color="#A6E7F0"/>
<stop offset="1" stop-color="#1C61CA"/>
</linearGradient>
<linearGradient id="paint25_linear_11_127" x1="96.6709" y1="-499.328" x2="993.676" y2="1465.63" gradientUnits="userSpaceOnUse">
<stop stop-color="#A6E7F0"/>
<stop offset="1" stop-color="#1C61CA"/>
</linearGradient>
<linearGradient id="paint26_linear_11_127" x1="96.6709" y1="-499.328" x2="993.676" y2="1465.63" gradientUnits="userSpaceOnUse">
<stop stop-color="#A6E7F0"/>
<stop offset="1" stop-color="#1C61CA"/>
</linearGradient>
<linearGradient id="paint27_linear_11_127" x1="96.6709" y1="-499.328" x2="993.676" y2="1465.63" gradientUnits="userSpaceOnUse">
<stop stop-color="#A6E7F0"/>
<stop offset="1" stop-color="#1C61CA"/>
</linearGradient>
<linearGradient id="paint28_linear_11_127" x1="96.6709" y1="-499.328" x2="993.676" y2="1465.63" gradientUnits="userSpaceOnUse">
<stop stop-color="#A6E7F0"/>
<stop offset="1" stop-color="#1C61CA"/>
</linearGradient>
<linearGradient id="paint29_linear_11_127" x1="96.6709" y1="-499.328" x2="993.676" y2="1465.63" gradientUnits="userSpaceOnUse">
<stop stop-color="#A6E7F0"/>
<stop offset="1" stop-color="#1C61CA"/>
</linearGradient>
<linearGradient id="paint30_linear_11_127" x1="96.6709" y1="-499.328" x2="993.676" y2="1465.63" gradientUnits="userSpaceOnUse">
<stop stop-color="#A6E7F0"/>
<stop offset="1" stop-color="#1C61CA"/>
</linearGradient>
<linearGradient id="paint31_linear_11_127" x1="96.6709" y1="-499.328" x2="993.676" y2="1465.63" gradientUnits="userSpaceOnUse">
<stop stop-color="#A6E7F0"/>
<stop offset="1" stop-color="#1C61CA"/>
</linearGradient>
<linearGradient id="paint32_linear_11_127" x1="96.6709" y1="-499.328" x2="993.676" y2="1465.63" gradientUnits="userSpaceOnUse">
<stop stop-color="#A6E7F0"/>
<stop offset="1" stop-color="#1C61CA"/>
</linearGradient>
<linearGradient id="paint33_linear_11_127" x1="96.6709" y1="-499.328" x2="993.676" y2="1465.63" gradientUnits="userSpaceOnUse">
<stop stop-color="#A6E7F0"/>
<stop offset="1" stop-color="#1C61CA"/>
</linearGradient>
<linearGradient id="paint34_linear_11_127" x1="96.6709" y1="-499.328" x2="993.676" y2="1465.63" gradientUnits="userSpaceOnUse">
<stop stop-color="#A6E7F0"/>
<stop offset="1" stop-color="#1C61CA"/>
</linearGradient>
<linearGradient id="paint35_linear_11_127" x1="96.6709" y1="-499.328" x2="993.676" y2="1465.63" gradientUnits="userSpaceOnUse">
<stop stop-color="#A6E7F0"/>
<stop offset="1" stop-color="#1C61CA"/>
</linearGradient>
<linearGradient id="paint36_linear_11_127" x1="96.6709" y1="-499.328" x2="993.676" y2="1465.63" gradientUnits="userSpaceOnUse">
<stop stop-color="#A6E7F0"/>
<stop offset="1" stop-color="#1C61CA"/>
</linearGradient>
<linearGradient id="paint37_linear_11_127" x1="96.6709" y1="-499.328" x2="993.676" y2="1465.63" gradientUnits="userSpaceOnUse">
<stop stop-color="#A6E7F0"/>
<stop offset="1" stop-color="#1C61CA"/>
</linearGradient>
<linearGradient id="paint38_linear_11_127" x1="96.6709" y1="-499.328" x2="993.676" y2="1465.63" gradientUnits="userSpaceOnUse">
<stop stop-color="#A6E7F0"/>
<stop offset="1" stop-color="#1C61CA"/>
</linearGradient>
<linearGradient id="paint39_linear_11_127" x1="96.6709" y1="-499.328" x2="993.676" y2="1465.63" gradientUnits="userSpaceOnUse">
<stop stop-color="#A6E7F0"/>
<stop offset="1" stop-color="#1C61CA"/>
</linearGradient>
<linearGradient id="paint40_linear_11_127" x1="96.6709" y1="-499.328" x2="993.676" y2="1465.63" gradientUnits="userSpaceOnUse">
<stop stop-color="#A6E7F0"/>
<stop offset="1" stop-color="#1C61CA"/>
</linearGradient>
<linearGradient id="paint41_linear_11_127" x1="96.6709" y1="-499.328" x2="993.676" y2="1465.63" gradientUnits="userSpaceOnUse">
<stop stop-color="#A6E7F0"/>
<stop offset="1" stop-color="#1C61CA"/>
</linearGradient>
<linearGradient id="paint42_linear_11_127" x1="96.6709" y1="-499.328" x2="993.676" y2="1465.63" gradientUnits="userSpaceOnUse">
<stop stop-color="#A6E7F0"/>
<stop offset="1" stop-color="#1C61CA"/>
</linearGradient>
<linearGradient id="paint43_linear_11_127" x1="96.6709" y1="-499.328" x2="993.676" y2="1465.63" gradientUnits="userSpaceOnUse">
<stop stop-color="#A6E7F0"/>
<stop offset="1" stop-color="#1C61CA"/>
</linearGradient>
<linearGradient id="paint44_linear_11_127" x1="96.6709" y1="-499.328" x2="993.676" y2="1465.63" gradientUnits="userSpaceOnUse">
<stop stop-color="#A6E7F0"/>
<stop offset="1" stop-color="#1C61CA"/>
</linearGradient>
<linearGradient id="paint45_linear_11_127" x1="96.6709" y1="-499.328" x2="993.676" y2="1465.63" gradientUnits="userSpaceOnUse">
<stop stop-color="#A6E7F0"/>
<stop offset="1" stop-color="#1C61CA"/>
</linearGradient>
<linearGradient id="paint46_linear_11_127" x1="96.6709" y1="-499.328" x2="993.676" y2="1465.63" gradientUnits="userSpaceOnUse">
<stop stop-color="#A6E7F0"/>
<stop offset="1" stop-color="#1C61CA"/>
</linearGradient>
<linearGradient id="paint47_linear_11_127" x1="96.6709" y1="-499.328" x2="993.676" y2="1465.63" gradientUnits="userSpaceOnUse">
<stop stop-color="#A6E7F0"/>
<stop offset="1" stop-color="#1C61CA"/>
</linearGradient>
<linearGradient id="paint48_linear_11_127" x1="96.6709" y1="-499.328" x2="993.676" y2="1465.63" gradientUnits="userSpaceOnUse">
<stop stop-color="#A6E7F0"/>
<stop offset="1" stop-color="#1C61CA"/>
</linearGradient>
<linearGradient id="paint49_linear_11_127" x1="96.6709" y1="-499.328" x2="993.676" y2="1465.63" gradientUnits="userSpaceOnUse">
<stop stop-color="#A6E7F0"/>
<stop offset="1" stop-color="#1C61CA"/>
</linearGradient>
<linearGradient id="paint50_linear_11_127" x1="96.6709" y1="-499.328" x2="993.676" y2="1465.63" gradientUnits="userSpaceOnUse">
<stop stop-color="#A6E7F0"/>
<stop offset="1" stop-color="#1C61CA"/>
</linearGradient>
<linearGradient id="paint51_linear_11_127" x1="96.6709" y1="-499.328" x2="993.676" y2="1465.63" gradientUnits="userSpaceOnUse">
<stop stop-color="#A6E7F0"/>
<stop offset="1" stop-color="#1C61CA"/>
</linearGradient>
<linearGradient id="paint52_linear_11_127" x1="96.6709" y1="-499.328" x2="993.676" y2="1465.63" gradientUnits="userSpaceOnUse">
<stop stop-color="#A6E7F0"/>
<stop offset="1" stop-color="#1C61CA"/>
</linearGradient>
<linearGradient id="paint53_linear_11_127" x1="96.6709" y1="-499.328" x2="993.676" y2="1465.63" gradientUnits="userSpaceOnUse">
<stop stop-color="#A6E7F0"/>
<stop offset="1" stop-color="#1C61CA"/>
</linearGradient>
<linearGradient id="paint54_linear_11_127" x1="96.6709" y1="-499.328" x2="993.676" y2="1465.63" gradientUnits="userSpaceOnUse">
<stop stop-color="#A6E7F0"/>
<stop offset="1" stop-color="#1C61CA"/>
</linearGradient>
<linearGradient id="paint55_linear_11_127" x1="96.6709" y1="-499.328" x2="993.676" y2="1465.63" gradientUnits="userSpaceOnUse">
<stop stop-color="#A6E7F0"/>
<stop offset="1" stop-color="#1C61CA"/>
</linearGradient>
<linearGradient id="paint56_linear_11_127" x1="96.6709" y1="-499.328" x2="993.676" y2="1465.63" gradientUnits="userSpaceOnUse">
<stop stop-color="#A6E7F0"/>
<stop offset="1" stop-color="#1C61CA"/>
</linearGradient>
<linearGradient id="paint57_linear_11_127" x1="96.6709" y1="-499.328" x2="993.676" y2="1465.63" gradientUnits="userSpaceOnUse">
<stop stop-color="#A6E7F0"/>
<stop offset="1" stop-color="#1C61CA"/>
</linearGradient>
<linearGradient id="paint58_linear_11_127" x1="96.6709" y1="-499.328" x2="993.676" y2="1465.63" gradientUnits="userSpaceOnUse">
<stop stop-color="#A6E7F0"/>
<stop offset="1" stop-color="#1C61CA"/>
</linearGradient>
<linearGradient id="paint59_linear_11_127" x1="96.6709" y1="-499.328" x2="993.676" y2="1465.63" gradientUnits="userSpaceOnUse">
<stop stop-color="#A6E7F0"/>
<stop offset="1" stop-color="#1C61CA"/>
</linearGradient>
<linearGradient id="paint60_linear_11_127" x1="96.6709" y1="-499.328" x2="993.676" y2="1465.63" gradientUnits="userSpaceOnUse">
<stop stop-color="#A6E7F0"/>
<stop offset="1" stop-color="#1C61CA"/>
</linearGradient>
<linearGradient id="paint61_linear_11_127" x1="96.6709" y1="-499.328" x2="993.676" y2="1465.63" gradientUnits="userSpaceOnUse">
<stop stop-color="#A6E7F0"/>
<stop offset="1" stop-color="#1C61CA"/>
</linearGradient>
<linearGradient id="paint62_linear_11_127" x1="96.6709" y1="-499.328" x2="993.676" y2="1465.63" gradientUnits="userSpaceOnUse">
<stop stop-color="#A6E7F0"/>
<stop offset="1" stop-color="#1C61CA"/>
</linearGradient>
<linearGradient id="paint63_linear_11_127" x1="96.6709" y1="-499.328" x2="993.676" y2="1465.63" gradientUnits="userSpaceOnUse">
<stop stop-color="#A6E7F0"/>
<stop offset="1" stop-color="#1C61CA"/>
</linearGradient>
<linearGradient id="paint64_linear_11_127" x1="96.6709" y1="-499.328" x2="993.676" y2="1465.63" gradientUnits="userSpaceOnUse">
<stop stop-color="#A6E7F0"/>
<stop offset="1" stop-color="#1C61CA"/>
</linearGradient>
<linearGradient id="paint65_linear_11_127" x1="96.6709" y1="-499.328" x2="993.676" y2="1465.63" gradientUnits="userSpaceOnUse">
<stop stop-color="#A6E7F0"/>
<stop offset="1" stop-color="#1C61CA"/>
</linearGradient>
<linearGradient id="paint66_linear_11_127" x1="96.6709" y1="-499.328" x2="993.676" y2="1465.63" gradientUnits="userSpaceOnUse">
<stop stop-color="#A6E7F0"/>
<stop offset="1" stop-color="#1C61CA"/>
</linearGradient>
<linearGradient id="paint67_linear_11_127" x1="96.6709" y1="-499.328" x2="993.676" y2="1465.63" gradientUnits="userSpaceOnUse">
<stop stop-color="#A6E7F0"/>
<stop offset="1" stop-color="#1C61CA"/>
</linearGradient>
<linearGradient id="paint68_linear_11_127" x1="96.6709" y1="-499.328" x2="993.676" y2="1465.63" gradientUnits="userSpaceOnUse">
<stop stop-color="#A6E7F0"/>
<stop offset="1" stop-color="#1C61CA"/>
</linearGradient>
<linearGradient id="paint69_linear_11_127" x1="96.6709" y1="-499.328" x2="993.676" y2="1465.63" gradientUnits="userSpaceOnUse">
<stop stop-color="#A6E7F0"/>
<stop offset="1" stop-color="#1C61CA"/>
</linearGradient>
<linearGradient id="paint70_linear_11_127" x1="96.6709" y1="-499.328" x2="993.676" y2="1465.63" gradientUnits="userSpaceOnUse">
<stop stop-color="#A6E7F0"/>
<stop offset="1" stop-color="#1C61CA"/>
</linearGradient>
<linearGradient id="paint71_linear_11_127" x1="96.6709" y1="-499.328" x2="993.676" y2="1465.63" gradientUnits="userSpaceOnUse">
<stop stop-color="#A6E7F0"/>
<stop offset="1" stop-color="#1C61CA"/>
</linearGradient>
<linearGradient id="paint72_linear_11_127" x1="96.6709" y1="-499.328" x2="993.676" y2="1465.63" gradientUnits="userSpaceOnUse">
<stop stop-color="#A6E7F0"/>
<stop offset="1" stop-color="#1C61CA"/>
</linearGradient>
<linearGradient id="paint73_linear_11_127" x1="96.6709" y1="-499.328" x2="993.676" y2="1465.63" gradientUnits="userSpaceOnUse">
<stop stop-color="#A6E7F0"/>
<stop offset="1" stop-color="#1C61CA"/>
</linearGradient>
<linearGradient id="paint74_linear_11_127" x1="96.6709" y1="-499.328" x2="993.676" y2="1465.63" gradientUnits="userSpaceOnUse">
<stop stop-color="#A6E7F0"/>
<stop offset="1" stop-color="#1C61CA"/>
</linearGradient>
<linearGradient id="paint75_linear_11_127" x1="96.6709" y1="-499.328" x2="993.676" y2="1465.63" gradientUnits="userSpaceOnUse">
<stop stop-color="#A6E7F0"/>
<stop offset="1" stop-color="#1C61CA"/>
</linearGradient>
<linearGradient id="paint76_linear_11_127" x1="96.6709" y1="-499.328" x2="993.676" y2="1465.63" gradientUnits="userSpaceOnUse">
<stop stop-color="#A6E7F0"/>
<stop offset="1" stop-color="#1C61CA"/>
</linearGradient>
<linearGradient id="paint77_linear_11_127" x1="96.6709" y1="-499.328" x2="993.676" y2="1465.63" gradientUnits="userSpaceOnUse">
<stop stop-color="#A6E7F0"/>
<stop offset="1" stop-color="#1C61CA"/>
</linearGradient>
<linearGradient id="paint78_linear_11_127" x1="96.6709" y1="-499.328" x2="993.676" y2="1465.63" gradientUnits="userSpaceOnUse">
<stop stop-color="#A6E7F0"/>
<stop offset="1" stop-color="#1C61CA"/>
</linearGradient>
<linearGradient id="paint79_linear_11_127" x1="96.6709" y1="-499.328" x2="993.676" y2="1465.63" gradientUnits="userSpaceOnUse">
<stop stop-color="#A6E7F0"/>
<stop offset="1" stop-color="#1C61CA"/>
</linearGradient>
<linearGradient id="paint80_linear_11_127" x1="96.6709" y1="-499.328" x2="993.676" y2="1465.63" gradientUnits="userSpaceOnUse">
<stop stop-color="#A6E7F0"/>
<stop offset="1" stop-color="#1C61CA"/>
</linearGradient>
<linearGradient id="paint81_linear_11_127" x1="96.6709" y1="-499.328" x2="993.676" y2="1465.63" gradientUnits="userSpaceOnUse">
<stop stop-color="#A6E7F0"/>
<stop offset="1" stop-color="#1C61CA"/>
</linearGradient>
<linearGradient id="paint82_linear_11_127" x1="96.6709" y1="-499.328" x2="993.676" y2="1465.63" gradientUnits="userSpaceOnUse">
<stop stop-color="#A6E7F0"/>
<stop offset="1" stop-color="#1C61CA"/>
</linearGradient>
<linearGradient id="paint83_linear_11_127" x1="96.6709" y1="-499.328" x2="993.676" y2="1465.63" gradientUnits="userSpaceOnUse">
<stop stop-color="#A6E7F0"/>
<stop offset="1" stop-color="#1C61CA"/>
</linearGradient>
<linearGradient id="paint84_linear_11_127" x1="96.6709" y1="-499.328" x2="993.676" y2="1465.63" gradientUnits="userSpaceOnUse">
<stop stop-color="#A6E7F0"/>
<stop offset="1" stop-color="#1C61CA"/>
</linearGradient>
<linearGradient id="paint85_linear_11_127" x1="96.6709" y1="-499.328" x2="993.676" y2="1465.63" gradientUnits="userSpaceOnUse">
<stop stop-color="#A6E7F0"/>
<stop offset="1" stop-color="#1C61CA"/>
</linearGradient>
<linearGradient id="paint86_linear_11_127" x1="96.6709" y1="-499.328" x2="993.676" y2="1465.63" gradientUnits="userSpaceOnUse">
<stop stop-color="#A6E7F0"/>
<stop offset="1" stop-color="#1C61CA"/>
</linearGradient>
<linearGradient id="paint87_linear_11_127" x1="96.6709" y1="-499.328" x2="993.676" y2="1465.63" gradientUnits="userSpaceOnUse">
<stop stop-color="#A6E7F0"/>
<stop offset="1" stop-color="#1C61CA"/>
</linearGradient>
<linearGradient id="paint88_linear_11_127" x1="96.6709" y1="-499.328" x2="993.676" y2="1465.63" gradientUnits="userSpaceOnUse">
<stop stop-color="#A6E7F0"/>
<stop offset="1" stop-color="#1C61CA"/>
</linearGradient>
<linearGradient id="paint89_linear_11_127" x1="96.6709" y1="-499.328" x2="993.676" y2="1465.63" gradientUnits="userSpaceOnUse">
<stop stop-color="#A6E7F0"/>
<stop offset="1" stop-color="#1C61CA"/>
</linearGradient>
<linearGradient id="paint90_linear_11_127" x1="96.6709" y1="-499.328" x2="993.676" y2="1465.63" gradientUnits="userSpaceOnUse">
<stop stop-color="#A6E7F0"/>
<stop offset="1" stop-color="#1C61CA"/>
</linearGradient>
<linearGradient id="paint91_linear_11_127" x1="96.6709" y1="-499.328" x2="993.676" y2="1465.63" gradientUnits="userSpaceOnUse">
<stop stop-color="#A6E7F0"/>
<stop offset="1" stop-color="#1C61CA"/>
</linearGradient>
<linearGradient id="paint92_linear_11_127" x1="96.6709" y1="-499.328" x2="993.676" y2="1465.63" gradientUnits="userSpaceOnUse">
<stop stop-color="#A6E7F0"/>
<stop offset="1" stop-color="#1C61CA"/>
</linearGradient>
<linearGradient id="paint93_linear_11_127" x1="96.6709" y1="-499.328" x2="993.676" y2="1465.63" gradientUnits="userSpaceOnUse">
<stop stop-color="#A6E7F0"/>
<stop offset="1" stop-color="#1C61CA"/>
</linearGradient>
<linearGradient id="paint94_linear_11_127" x1="96.6709" y1="-499.328" x2="993.676" y2="1465.63" gradientUnits="userSpaceOnUse">
<stop stop-color="#A6E7F0"/>
<stop offset="1" stop-color="#1C61CA"/>
</linearGradient>
<linearGradient id="paint95_linear_11_127" x1="96.6709" y1="-499.328" x2="993.676" y2="1465.63" gradientUnits="userSpaceOnUse">
<stop stop-color="#A6E7F0"/>
<stop offset="1" stop-color="#1C61CA"/>
</linearGradient>
<linearGradient id="paint96_linear_11_127" x1="96.6709" y1="-499.328" x2="993.676" y2="1465.63" gradientUnits="userSpaceOnUse">
<stop stop-color="#A6E7F0"/>
<stop offset="1" stop-color="#1C61CA"/>
</linearGradient>
<linearGradient id="paint97_linear_11_127" x1="96.6709" y1="-499.328" x2="993.676" y2="1465.63" gradientUnits="userSpaceOnUse">
<stop stop-color="#A6E7F0"/>
<stop offset="1" stop-color="#1C61CA"/>
</linearGradient>
<linearGradient id="paint98_linear_11_127" x1="96.6709" y1="-499.328" x2="993.676" y2="1465.63" gradientUnits="userSpaceOnUse">
<stop stop-color="#A6E7F0"/>
<stop offset="1" stop-color="#1C61CA"/>
</linearGradient>
<linearGradient id="paint99_linear_11_127" x1="96.6709" y1="-499.328" x2="993.676" y2="1465.63" gradientUnits="userSpaceOnUse">
<stop stop-color="#A6E7F0"/>
<stop offset="1" stop-color="#1C61CA"/>
</linearGradient>
<linearGradient id="paint100_linear_11_127" x1="96.6709" y1="-499.328" x2="993.676" y2="1465.63" gradientUnits="userSpaceOnUse">
<stop stop-color="#A6E7F0"/>
<stop offset="1" stop-color="#1C61CA"/>
</linearGradient>
<linearGradient id="paint101_linear_11_127" x1="96.6709" y1="-499.328" x2="993.676" y2="1465.63" gradientUnits="userSpaceOnUse">
<stop stop-color="#A6E7F0"/>
<stop offset="1" stop-color="#1C61CA"/>
</linearGradient>
<linearGradient id="paint102_linear_11_127" x1="96.6709" y1="-499.328" x2="993.676" y2="1465.63" gradientUnits="userSpaceOnUse">
<stop stop-color="#A6E7F0"/>
<stop offset="1" stop-color="#1C61CA"/>
</linearGradient>
<linearGradient id="paint103_linear_11_127" x1="96.6709" y1="-499.328" x2="993.676" y2="1465.63" gradientUnits="userSpaceOnUse">
<stop stop-color="#A6E7F0"/>
<stop offset="1" stop-color="#1C61CA"/>
</linearGradient>
<linearGradient id="paint104_linear_11_127" x1="96.6709" y1="-499.328" x2="993.676" y2="1465.63" gradientUnits="userSpaceOnUse">
<stop stop-color="#A6E7F0"/>
<stop offset="1" stop-color="#1C61CA"/>
</linearGradient>
<linearGradient id="paint105_linear_11_127" x1="96.6709" y1="-499.328" x2="993.676" y2="1465.63" gradientUnits="userSpaceOnUse">
<stop stop-color="#A6E7F0"/>
<stop offset="1" stop-color="#1C61CA"/>
</linearGradient>
<linearGradient id="paint106_linear_11_127" x1="96.6709" y1="-499.328" x2="993.676" y2="1465.63" gradientUnits="userSpaceOnUse">
<stop stop-color="#A6E7F0"/>
<stop offset="1" stop-color="#1C61CA"/>
</linearGradient>
<linearGradient id="paint107_linear_11_127" x1="96.6709" y1="-499.328" x2="993.676" y2="1465.63" gradientUnits="userSpaceOnUse">
<stop stop-color="#A6E7F0"/>
<stop offset="1" stop-color="#1C61CA"/>
</linearGradient>
<linearGradient id="paint108_linear_11_127" x1="96.6709" y1="-499.328" x2="993.676" y2="1465.63" gradientUnits="userSpaceOnUse">
<stop stop-color="#A6E7F0"/>
<stop offset="1" stop-color="#1C61CA"/>
</linearGradient>
<linearGradient id="paint109_linear_11_127" x1="96.6709" y1="-499.328" x2="993.676" y2="1465.63" gradientUnits="userSpaceOnUse">
<stop stop-color="#A6E7F0"/>
<stop offset="1" stop-color="#1C61CA"/>
</linearGradient>
<linearGradient id="paint110_linear_11_127" x1="96.6709" y1="-499.328" x2="993.676" y2="1465.63" gradientUnits="userSpaceOnUse">
<stop stop-color="#A6E7F0"/>
<stop offset="1" stop-color="#1C61CA"/>
</linearGradient>
<linearGradient id="paint111_linear_11_127" x1="96.6709" y1="-499.328" x2="993.676" y2="1465.63" gradientUnits="userSpaceOnUse">
<stop stop-color="#A6E7F0"/>
<stop offset="1" stop-color="#1C61CA"/>
</linearGradient>
<linearGradient id="paint112_linear_11_127" x1="96.6709" y1="-499.328" x2="993.676" y2="1465.63" gradientUnits="userSpaceOnUse">
<stop stop-color="#A6E7F0"/>
<stop offset="1" stop-color="#1C61CA"/>
</linearGradient>
<linearGradient id="paint113_linear_11_127" x1="96.6709" y1="-499.328" x2="993.676" y2="1465.63" gradientUnits="userSpaceOnUse">
<stop stop-color="#A6E7F0"/>
<stop offset="1" stop-color="#1C61CA"/>
</linearGradient>
<linearGradient id="paint114_linear_11_127" x1="96.6709" y1="-499.328" x2="993.676" y2="1465.63" gradientUnits="userSpaceOnUse">
<stop stop-color="#A6E7F0"/>
<stop offset="1" stop-color="#1C61CA"/>
</linearGradient>
<linearGradient id="paint115_linear_11_127" x1="96.6709" y1="-499.328" x2="993.676" y2="1465.63" gradientUnits="userSpaceOnUse">
<stop stop-color="#A6E7F0"/>
<stop offset="1" stop-color="#1C61CA"/>
</linearGradient>
<linearGradient id="paint116_linear_11_127" x1="96.6709" y1="-499.328" x2="993.676" y2="1465.63" gradientUnits="userSpaceOnUse">
<stop stop-color="#A6E7F0"/>
<stop offset="1" stop-color="#1C61CA"/>
</linearGradient>
<linearGradient id="paint117_linear_11_127" x1="96.6709" y1="-499.328" x2="993.676" y2="1465.63" gradientUnits="userSpaceOnUse">
<stop stop-color="#A6E7F0"/>
<stop offset="1" stop-color="#1C61CA"/>
</linearGradient>
<linearGradient id="paint118_linear_11_127" x1="96.6709" y1="-499.328" x2="993.676" y2="1465.63" gradientUnits="userSpaceOnUse">
<stop stop-color="#A6E7F0"/>
<stop offset="1" stop-color="#1C61CA"/>
</linearGradient>
</defs>
</svg>
