<svg width="1000" height="1001" viewBox="0 0 1000 1001" fill="none" xmlns="http://www.w3.org/2000/svg">
<path d="M0 613.681C0 609.816 3.09718 606.682 6.91776 606.682C10.7383 606.682 13.8355 609.816 13.8355 613.681V613.941C13.8355 617.806 10.7383 620.94 6.91776 620.94C3.09718 620.94 0 617.806 0 613.941V613.681Z" fill="url(#paint0_linear_11_126)"/>
<path d="M18.5755 599.359C18.5755 595.529 21.644 592.424 25.4292 592.424C29.2144 592.424 32.2829 595.529 32.2829 599.359V628.134C32.2829 631.964 29.2144 635.068 25.4292 635.068C21.644 635.068 18.5755 631.964 18.5755 628.134V599.359Z" fill="url(#paint1_linear_11_126)"/>
<path d="M37.0228 585.101C37.0228 581.271 40.0913 578.166 43.8765 578.166C47.6617 578.166 50.7302 581.271 50.7302 585.101V616.598C50.7302 620.428 47.6617 623.532 43.8765 623.532C40.0913 623.532 37.0228 620.428 37.0228 616.598V585.101Z" fill="url(#paint2_linear_11_126)"/>
<path d="M37.0228 633.059C37.0228 629.229 40.0913 626.125 43.8765 626.125C47.6617 626.125 50.7302 629.229 50.7302 633.059V642.522C50.7302 646.351 47.6617 649.456 43.8765 649.456C40.0913 649.456 37.0228 646.351 37.0228 642.522V633.059Z" fill="url(#paint3_linear_11_126)"/>
<path d="M55.5983 570.842C55.5983 567.013 58.6668 563.908 62.452 563.908C66.2372 563.908 69.3057 567.013 69.3057 570.842V656.65C69.3057 660.48 66.2372 663.585 62.452 663.585C58.6668 663.585 55.5983 660.48 55.5983 656.65V570.842Z" fill="url(#paint4_linear_11_126)"/>
<path d="M74.0456 589.248C74.0456 585.418 77.1141 582.314 80.8993 582.314C84.6845 582.314 87.753 585.418 87.753 589.248V670.908C87.753 674.738 84.6845 677.843 80.8993 677.843C77.1141 677.843 74.0456 674.738 74.0456 670.908V589.248Z" fill="url(#paint5_linear_11_126)"/>
<path d="M74.0456 556.584C74.0456 552.755 77.1141 549.65 80.8993 549.65C84.6845 549.65 87.753 552.755 87.753 556.584V571.231C87.753 575.061 84.6845 578.166 80.8993 578.166C77.1141 578.166 74.0456 575.061 74.0456 571.231V556.584Z" fill="url(#paint6_linear_11_126)"/>
<path d="M92.6211 542.326C92.6211 538.497 95.6896 535.392 99.4748 535.392C103.26 535.392 106.328 538.497 106.328 542.326V599.747C106.328 603.577 103.26 606.682 99.4748 606.682C95.6896 606.682 92.6211 603.577 92.6211 599.747V542.326Z" fill="url(#paint7_linear_11_126)"/>
<path d="M92.6211 627.875C92.6211 624.045 95.6896 620.94 99.4748 620.94C103.26 620.94 106.328 624.045 106.328 627.875V661.057C106.328 664.887 103.26 667.992 99.4748 667.992C95.6896 667.992 92.6211 664.887 92.6211 661.057V627.875Z" fill="url(#paint8_linear_11_126)"/>
<path d="M92.6211 678.555C92.6211 674.726 95.6896 671.621 99.4748 671.621C103.26 671.621 106.328 674.726 106.328 678.555V685.166C106.328 688.996 103.26 692.101 99.4748 692.101C95.6896 692.101 92.6211 688.996 92.6211 685.166V678.555Z" fill="url(#paint9_linear_11_126)"/>
<path d="M111.197 641.938C111.197 638.144 114.236 635.068 117.986 635.068C121.736 635.068 124.776 638.144 124.776 641.938V699.618C124.776 703.413 121.736 706.488 117.986 706.488C114.236 706.488 111.197 703.413 111.197 699.618V641.938Z" fill="url(#paint10_linear_11_126)"/>
<path d="M129.644 656.391C129.644 652.561 132.712 649.456 136.498 649.456C140.283 649.456 143.351 652.561 143.351 656.391V713.552C143.351 717.382 140.283 720.487 136.498 720.487C132.712 720.487 129.644 717.382 129.644 713.552V656.391Z" fill="url(#paint11_linear_11_126)"/>
<path d="M148.219 670.454C148.219 666.66 151.259 663.585 155.009 663.585C158.759 663.585 161.799 666.66 161.799 670.454V682.509C161.799 686.303 158.759 689.379 155.009 689.379C151.259 689.379 148.219 686.303 148.219 682.509V670.454Z" fill="url(#paint12_linear_11_126)"/>
<path d="M148.219 698.97C148.219 695.176 151.259 692.101 155.009 692.101C158.759 692.101 161.799 695.176 161.799 698.97V728.005C161.799 731.799 158.759 734.875 155.009 734.875C151.259 734.875 148.219 731.799 148.219 728.005V698.97Z" fill="url(#paint13_linear_11_126)"/>
<path d="M166.795 684.712C166.795 680.918 169.835 677.843 173.584 677.843C177.334 677.843 180.374 680.918 180.374 684.712V742.263C180.374 746.057 177.334 749.133 173.584 749.133C169.835 749.133 166.795 746.057 166.795 742.263V684.712Z" fill="url(#paint14_linear_11_126)"/>
<path d="M185.242 752.244C185.242 748.449 188.282 745.374 192.032 745.374C195.782 745.374 198.821 748.449 198.821 752.244V756.521C198.821 760.315 195.782 763.391 192.032 763.391C188.282 763.391 185.242 760.315 185.242 756.521V752.244Z" fill="url(#paint15_linear_11_126)"/>
<path d="M185.242 698.97C185.242 695.176 188.282 692.101 192.032 692.101C195.782 692.101 198.821 695.176 198.821 698.97V735.004C198.821 738.798 195.782 741.874 192.032 741.874C188.282 741.874 185.242 738.798 185.242 735.004V698.97Z" fill="url(#paint16_linear_11_126)"/>
<path d="M203.689 713.423C203.689 709.593 206.758 706.488 210.543 706.488C214.328 706.488 217.397 709.593 217.397 713.423V770.585C217.397 774.414 214.328 777.519 210.543 777.519C206.758 777.519 203.689 774.414 203.689 770.585V713.423Z" fill="url(#paint17_linear_11_126)"/>
<path d="M222.137 727.486C222.137 723.621 225.234 720.487 229.055 720.487C232.875 720.487 235.972 723.621 235.972 727.486V739.93C235.972 743.795 232.875 746.929 229.055 746.929C225.234 746.929 222.137 743.795 222.137 739.93V727.486Z" fill="url(#paint18_linear_11_126)"/>
<path d="M222.137 756.91C222.137 753.044 225.234 749.91 229.055 749.91C232.875 749.91 235.972 753.044 235.972 756.91V784.907C235.972 788.773 232.875 791.907 229.055 791.907C225.234 791.907 222.137 788.773 222.137 784.907V756.91Z" fill="url(#paint19_linear_11_126)"/>
<path d="M240.712 741.809C240.712 737.979 243.781 734.875 247.566 734.875C251.351 734.875 254.42 737.979 254.42 741.809V773.307C254.42 777.136 251.351 780.241 247.566 780.241C243.781 780.241 240.712 777.136 240.712 773.307V741.809Z" fill="url(#paint20_linear_11_126)"/>
<path d="M240.712 790.416C240.712 786.586 243.781 783.482 247.566 783.482C251.351 783.482 254.42 786.586 254.42 790.416V799.101C254.42 802.93 251.351 806.035 247.566 806.035C243.781 806.035 240.712 802.93 240.712 799.101V790.416Z" fill="url(#paint21_linear_11_126)"/>
<path d="M111.197 528.133C111.197 524.339 114.236 521.263 117.986 521.263C121.736 521.263 124.776 524.339 124.776 528.133V554.057C124.776 557.851 121.736 560.927 117.986 560.927C114.236 560.927 111.197 557.851 111.197 554.057V528.133Z" fill="url(#paint22_linear_11_126)"/>
<path d="M111.197 570.778C111.197 566.984 114.236 563.908 117.986 563.908C121.736 563.908 124.776 566.984 124.776 570.778V585.554C124.776 589.348 121.736 592.424 117.986 592.424C114.236 592.424 111.197 589.348 111.197 585.554V570.778Z" fill="url(#paint23_linear_11_126)"/>
<path d="M143.351 571.231C143.351 575.061 140.283 578.166 136.498 578.166C132.712 578.166 129.644 575.061 129.644 571.231V539.475C129.644 535.645 132.712 532.54 136.498 532.54C140.283 532.54 143.351 535.645 143.351 539.475V571.231Z" fill="url(#paint24_linear_11_126)"/>
<path d="M129.644 513.81C129.644 509.98 132.712 506.876 136.498 506.876C140.283 506.876 143.351 509.98 143.351 513.81V522.754C143.351 526.584 140.283 529.689 136.498 529.689C132.712 529.689 129.644 526.584 129.644 522.754V513.81Z" fill="url(#paint25_linear_11_126)"/>
<path d="M148.219 499.552C148.219 495.722 151.288 492.618 155.073 492.618C158.858 492.618 161.927 495.722 161.927 499.552V556.973C161.927 560.803 158.858 563.908 155.073 563.908C151.288 563.908 148.219 560.803 148.219 556.973V499.552Z" fill="url(#paint26_linear_11_126)"/>
<path d="M166.667 522.884C166.667 519.054 169.735 515.949 173.52 515.949C177.306 515.949 180.374 519.054 180.374 522.884V542.715C180.374 546.545 177.306 549.65 173.52 549.65C169.735 549.65 166.667 546.545 166.667 542.715V522.884Z" fill="url(#paint27_linear_11_126)"/>
<path d="M166.667 485.424C166.667 481.594 169.735 478.489 173.52 478.489C177.306 478.489 180.374 481.594 180.374 485.424V505.774C180.374 509.604 177.306 512.709 173.52 512.709C169.735 512.709 166.667 509.604 166.667 505.774V485.424Z" fill="url(#paint28_linear_11_126)"/>
<path d="M185.242 471.036C185.242 467.206 188.311 464.102 192.096 464.102C195.881 464.102 198.95 467.206 198.95 471.036V528.457C198.95 532.287 195.881 535.392 192.096 535.392C188.311 535.392 185.242 532.287 185.242 528.457V471.036Z" fill="url(#paint29_linear_11_126)"/>
<path d="M203.561 456.973C203.561 453.107 206.659 449.973 210.479 449.973C214.3 449.973 217.397 453.107 217.397 456.973V485.618C217.397 489.484 214.3 492.618 210.479 492.618C206.659 492.618 203.561 489.484 203.561 485.618V456.973Z" fill="url(#paint30_linear_11_126)"/>
<path d="M203.561 503.635C203.561 499.77 206.659 496.636 210.479 496.636C214.3 496.636 217.397 499.77 217.397 503.635V514.264C217.397 518.13 214.3 521.263 210.479 521.263C206.659 521.263 203.561 518.13 203.561 514.264V503.635Z" fill="url(#paint31_linear_11_126)"/>
<path d="M222.137 442.715C222.137 438.849 225.234 435.715 229.055 435.715C232.875 435.715 235.972 438.849 235.972 442.715V499.876C235.972 503.742 232.875 506.876 229.055 506.876C225.234 506.876 222.137 503.742 222.137 499.876V442.715Z" fill="url(#paint32_linear_11_126)"/>
<path d="M240.712 428.327C240.712 424.461 243.809 421.328 247.63 421.328C251.451 421.328 254.548 424.461 254.548 428.327V485.618C254.548 489.484 251.451 492.618 247.63 492.618C243.809 492.618 240.712 489.484 240.712 485.618V428.327Z" fill="url(#paint33_linear_11_126)"/>
<path d="M1000 613.552C1000 609.758 996.96 606.682 993.21 606.682C989.46 606.682 986.421 609.758 986.421 613.552V614.07C986.421 617.864 989.46 620.94 993.21 620.94C996.96 620.94 1000 617.864 1000 614.07V613.552Z" fill="url(#paint34_linear_11_126)"/>
<path d="M981.425 599.294C981.425 595.5 978.385 592.424 974.635 592.424C970.885 592.424 967.845 595.5 967.845 599.294V628.199C967.845 631.993 970.885 635.068 974.635 635.068C978.385 635.068 981.425 631.993 981.425 628.199V599.294Z" fill="url(#paint35_linear_11_126)"/>
<path d="M962.977 585.101C962.977 581.271 959.909 578.166 956.123 578.166C952.338 578.166 949.27 581.271 949.27 585.101V615.172C949.27 619.002 952.338 622.107 956.123 622.107C959.909 622.107 962.977 619.002 962.977 615.172V585.101Z" fill="url(#paint36_linear_11_126)"/>
<path d="M962.977 631.115C962.977 627.285 959.909 624.18 956.123 624.18C952.338 624.18 949.27 627.285 949.27 631.115V642.522C949.27 646.351 952.338 649.456 956.123 649.456C959.909 649.456 962.977 646.351 962.977 642.522V631.115Z" fill="url(#paint37_linear_11_126)"/>
<path d="M944.402 570.778C944.402 566.984 941.362 563.908 937.612 563.908C933.862 563.908 930.822 566.984 930.822 570.778V656.715C930.822 660.509 933.862 663.585 937.612 663.585C941.362 663.585 944.402 660.509 944.402 656.715V570.778Z" fill="url(#paint38_linear_11_126)"/>
<path d="M925.954 556.584C925.954 552.755 922.886 549.65 919.101 549.65C915.315 549.65 912.247 552.755 912.247 556.584V586.786C912.247 590.615 915.315 593.72 919.101 593.72C922.886 593.72 925.954 590.615 925.954 586.786V556.584Z" fill="url(#paint39_linear_11_126)"/>
<path d="M925.954 602.858C925.954 599.028 922.886 595.924 919.101 595.924C915.315 595.924 912.247 599.028 912.247 602.858V670.908C912.247 674.738 915.315 677.843 919.101 677.843C922.886 677.843 925.954 674.738 925.954 670.908V602.858Z" fill="url(#paint40_linear_11_126)"/>
<path d="M907.379 542.326C907.379 538.497 904.31 535.392 900.525 535.392C896.74 535.392 893.671 538.497 893.671 542.326V599.747C893.671 603.577 896.74 606.682 900.525 606.682C904.31 606.682 907.379 603.577 907.379 599.747V542.326Z" fill="url(#paint41_linear_11_126)"/>
<path d="M907.379 627.875C907.379 624.045 904.31 620.94 900.525 620.94C896.74 620.94 893.671 624.045 893.671 627.875V655.613C893.671 659.443 896.74 662.548 900.525 662.548C904.31 662.548 907.379 659.443 907.379 655.613V627.875Z" fill="url(#paint42_linear_11_126)"/>
<path d="M907.379 672.075C907.379 668.245 904.31 665.14 900.525 665.14C896.74 665.14 893.671 668.245 893.671 672.075V685.166C893.671 688.996 896.74 692.101 900.525 692.101C904.31 692.101 907.379 688.996 907.379 685.166V672.075Z" fill="url(#paint43_linear_11_126)"/>
<path d="M888.803 641.938C888.803 638.144 885.764 635.068 882.014 635.068C878.264 635.068 875.224 638.144 875.224 641.938V699.618C875.224 703.413 878.264 706.488 882.014 706.488C885.764 706.488 888.803 703.413 888.803 699.618V641.938Z" fill="url(#paint44_linear_11_126)"/>
<path d="M870.356 685.814C870.356 681.984 867.288 678.879 863.502 678.879C859.717 678.879 856.649 681.984 856.649 685.814V713.552C856.649 717.382 859.717 720.487 863.502 720.487C867.288 720.487 870.356 717.382 870.356 713.552V685.814Z" fill="url(#paint45_linear_11_126)"/>
<path d="M870.356 656.391C870.356 652.561 867.288 649.456 863.502 649.456C859.717 649.456 856.649 652.561 856.649 656.391V668.834C856.649 672.664 859.717 675.769 863.502 675.769C867.288 675.769 870.356 672.664 870.356 668.834V656.391Z" fill="url(#paint46_linear_11_126)"/>
<path d="M851.781 670.454C851.781 666.66 848.741 663.585 844.991 663.585C841.241 663.585 838.201 666.66 838.201 670.454V728.005C838.201 731.799 841.241 734.875 844.991 734.875C848.741 734.875 851.781 731.799 851.781 728.005V670.454Z" fill="url(#paint47_linear_11_126)"/>
<path d="M833.461 684.842C833.461 680.976 830.364 677.843 826.544 677.843C822.723 677.843 819.626 680.976 819.626 684.842V742.133C819.626 745.999 822.723 749.133 826.544 749.133C830.364 749.133 833.461 745.999 833.461 742.133V684.842Z" fill="url(#paint48_linear_11_126)"/>
<path d="M814.886 699.035C814.886 695.205 811.817 692.101 808.032 692.101C804.247 692.101 801.179 695.205 801.179 699.035V703.183C801.179 707.013 804.247 710.118 808.032 710.118C811.817 710.118 814.886 707.013 814.886 703.183V699.035Z" fill="url(#paint49_linear_11_126)"/>
<path d="M814.886 718.996C814.886 715.167 811.817 712.062 808.032 712.062C804.247 712.062 801.179 715.167 801.179 718.996V732.347C801.179 736.177 804.247 739.282 808.032 739.282C811.817 739.282 814.886 736.177 814.886 732.347V718.996Z" fill="url(#paint50_linear_11_126)"/>
<path d="M814.886 748.549C814.886 744.72 811.817 741.615 808.032 741.615C804.247 741.615 801.179 744.72 801.179 748.549V756.456C801.179 760.286 804.247 763.391 808.032 763.391C811.817 763.391 814.886 760.286 814.886 756.456V748.549Z" fill="url(#paint51_linear_11_126)"/>
<path d="M796.439 713.488C796.439 709.622 793.341 706.488 789.521 706.488C785.7 706.488 782.603 709.622 782.603 713.488V770.52C782.603 774.385 785.7 777.519 789.521 777.519C793.341 777.519 796.439 774.385 796.439 770.52V713.488Z" fill="url(#paint52_linear_11_126)"/>
<path d="M777.863 727.486C777.863 723.621 774.766 720.487 770.945 720.487C767.125 720.487 764.028 723.621 764.028 727.486V742.133C764.028 745.999 767.125 749.133 770.945 749.133C774.766 749.133 777.863 745.999 777.863 742.133V727.486Z" fill="url(#paint53_linear_11_126)"/>
<path d="M777.863 757.947C777.863 754.081 774.766 750.947 770.945 750.947C767.125 750.947 764.028 754.081 764.028 757.947V784.907C764.028 788.773 767.125 791.907 770.945 791.907C774.766 791.907 777.863 788.773 777.863 784.907V757.947Z" fill="url(#paint54_linear_11_126)"/>
<path d="M759.288 741.809C759.288 737.979 756.219 734.875 752.434 734.875C748.649 734.875 745.58 737.979 745.58 741.809V799.101C745.58 802.93 748.649 806.035 752.434 806.035C756.219 806.035 759.288 802.93 759.288 799.101V741.809Z" fill="url(#paint55_linear_11_126)"/>
<path d="M888.803 528.133C888.803 524.339 885.764 521.263 882.014 521.263C878.264 521.263 875.224 524.339 875.224 528.133V544.984C875.224 548.778 878.264 551.853 882.014 551.853C885.764 551.853 888.803 548.778 888.803 544.984V528.133Z" fill="url(#paint56_linear_11_126)"/>
<path d="M888.803 561.704C888.803 557.91 885.764 554.835 882.014 554.835C878.264 554.835 875.224 557.91 875.224 561.704V585.554C875.224 589.348 878.264 592.424 882.014 592.424C885.764 592.424 888.803 589.348 888.803 585.554V561.704Z" fill="url(#paint57_linear_11_126)"/>
<path d="M870.356 513.81C870.356 509.98 867.288 506.876 863.502 506.876C859.717 506.876 856.649 509.98 856.649 513.81V571.231C856.649 575.061 859.717 578.166 863.502 578.166C867.288 578.166 870.356 575.061 870.356 571.231V513.81Z" fill="url(#paint58_linear_11_126)"/>
<path d="M851.781 499.488C851.781 495.693 848.741 492.618 844.991 492.618C841.241 492.618 838.201 495.693 838.201 499.488V557.038C838.201 560.832 841.241 563.908 844.991 563.908C848.741 563.908 851.781 560.832 851.781 557.038V499.488Z" fill="url(#paint59_linear_11_126)"/>
<path d="M833.461 485.489C833.461 481.623 830.364 478.489 826.544 478.489C822.723 478.489 819.626 481.623 819.626 485.489V496.247C819.626 500.113 822.723 503.246 826.544 503.246C830.364 503.246 833.461 500.113 833.461 496.247V485.489Z" fill="url(#paint60_linear_11_126)"/>
<path d="M833.461 513.875C833.461 510.009 830.364 506.876 826.544 506.876C822.723 506.876 819.626 510.009 819.626 513.875V542.65C819.626 546.516 822.723 549.65 826.544 549.65C830.364 549.65 833.461 546.516 833.461 542.65V513.875Z" fill="url(#paint61_linear_11_126)"/>
<path d="M814.886 471.036C814.886 467.206 811.817 464.102 808.032 464.102C804.247 464.102 801.179 467.206 801.179 471.036V508.366C801.179 512.196 804.247 515.301 808.032 515.301C811.817 515.301 814.886 512.196 814.886 508.366V471.036Z" fill="url(#paint62_linear_11_126)"/>
<path d="M814.886 525.735C814.886 521.905 811.817 518.801 808.032 518.801C804.247 518.801 801.179 521.905 801.179 525.735V528.457C801.179 532.287 804.247 535.392 808.032 535.392C811.817 535.392 814.886 532.287 814.886 528.457V525.735Z" fill="url(#paint63_linear_11_126)"/>
<path d="M796.439 456.973C796.439 453.107 793.341 449.973 789.521 449.973C785.7 449.973 782.603 453.107 782.603 456.973V514.264C782.603 518.13 785.7 521.263 789.521 521.263C793.341 521.263 796.439 518.13 796.439 514.264V456.973Z" fill="url(#paint64_linear_11_126)"/>
<path d="M777.863 442.715C777.863 438.849 774.766 435.715 770.945 435.715C767.125 435.715 764.028 438.849 764.028 442.715V458.528C764.028 462.394 767.125 465.527 770.945 465.527C774.766 465.527 777.863 462.394 777.863 458.528V442.715Z" fill="url(#paint65_linear_11_126)"/>
<path d="M777.863 475.638C777.863 471.772 774.766 468.638 770.945 468.638C767.125 468.638 764.028 471.772 764.028 475.638V499.876C764.028 503.742 767.125 506.876 770.945 506.876C774.766 506.876 777.863 503.742 777.863 499.876V475.638Z" fill="url(#paint66_linear_11_126)"/>
<path d="M759.288 428.262C759.288 424.432 756.219 421.328 752.434 421.328C748.649 421.328 745.58 424.432 745.58 428.262V485.683C745.58 489.513 748.649 492.618 752.434 492.618C756.219 492.618 759.288 489.513 759.288 485.683V428.262Z" fill="url(#paint67_linear_11_126)"/>
<path d="M60.8322 4.69694C66.1881 -0.866422 74.8718 -0.866422 80.2277 4.69694C85.5836 10.2603 85.5836 19.2803 80.2277 24.8437C74.8718 30.407 66.1881 30.407 60.8322 24.8437C55.4763 19.2803 55.4763 10.2603 60.8322 4.69694Z" fill="url(#paint68_linear_11_126)"/>
<path d="M114.383 4.69694C119.739 -0.866425 128.422 -0.866422 133.778 4.69694C139.134 10.2603 139.134 19.2803 133.778 24.8437L83.9641 76.5871C78.6082 82.1505 69.9246 82.1505 64.5686 76.5871C59.2127 71.0238 59.2127 62.0038 64.5686 56.4404L114.383 4.69694Z" fill="url(#paint69_linear_11_126)"/>
<path d="M171.555 4.69693C176.91 -0.866431 185.594 -0.866422 190.95 4.69694C196.306 10.2603 196.306 19.2803 190.95 24.8437L96.5108 122.941C91.1549 128.504 82.4712 128.504 77.1153 122.941C71.7594 117.377 71.7594 108.357 77.1153 102.794L171.555 4.69693Z" fill="url(#paint70_linear_11_126)"/>
<path d="M227.612 4.69694C232.968 -0.866427 241.652 -0.866422 247.007 4.69694C252.363 10.2603 252.363 19.2803 247.007 24.8437L115.183 161.774C109.827 167.337 101.144 167.337 95.7877 161.774C90.4318 156.21 90.4318 147.19 95.7877 141.627L227.612 4.69694Z" fill="url(#paint71_linear_11_126)"/>
<path d="M284.323 4.69696C289.679 -0.866405 298.363 -0.866422 303.719 4.69694C309.075 10.2603 309.075 19.2803 303.719 24.8437L152.227 182.203C146.871 187.766 138.187 187.766 132.831 182.203C127.476 176.64 127.476 167.62 132.831 162.056L284.323 4.69696Z" fill="url(#paint72_linear_11_126)"/>
<path d="M341.035 4.69695C346.39 -0.866414 355.074 -0.866422 360.43 4.69694C365.786 10.2603 365.786 19.2803 360.43 24.8437L293.555 94.3086C288.199 99.872 279.516 99.872 274.16 94.3086C268.804 88.7452 268.804 79.7253 274.16 74.1619L341.035 4.69695Z" fill="url(#paint73_linear_11_126)"/>
<path d="M244.209 105.273C249.565 99.7095 258.248 99.7095 263.604 105.273C268.96 110.836 268.96 119.856 263.604 125.42L244.9 144.849C239.544 150.412 230.86 150.412 225.504 144.849C220.148 139.285 220.148 130.265 225.504 124.702L244.209 105.273Z" fill="url(#paint74_linear_11_126)"/>
<path d="M196.686 154.636C202.042 149.073 210.726 149.073 216.082 154.636C221.438 160.2 221.438 169.22 216.082 174.783L196.288 195.344C190.932 200.907 182.248 200.907 176.892 195.344C171.536 189.78 171.536 180.76 176.892 175.197L196.686 154.636Z" fill="url(#paint75_linear_11_126)"/>
<path d="M397.746 4.69694C403.102 -0.866424 411.785 -0.866422 417.141 4.69694C422.497 10.2603 422.497 19.2803 417.141 24.8437L248.429 200.09C243.073 205.653 234.39 205.653 229.034 200.09C223.678 194.527 223.678 185.507 229.034 179.943L397.746 4.69694Z" fill="url(#paint76_linear_11_126)"/>
<path d="M357.22 105.7C362.576 100.136 371.26 100.136 376.616 105.7C381.971 111.263 381.971 120.283 376.616 125.846L305.14 200.09C299.784 205.653 291.101 205.653 285.745 200.09C280.389 194.527 280.389 185.507 285.745 179.943L357.22 105.7Z" fill="url(#paint77_linear_11_126)"/>
<path d="M454.38 4.77631C459.736 -0.78705 468.42 -0.787056 473.776 4.77631C479.132 10.3397 479.132 19.3597 473.776 24.923L406.041 95.2815C400.685 100.845 392.001 100.845 386.645 95.2815C381.289 89.7181 381.289 80.6981 386.645 75.1348L454.38 4.77631Z" fill="url(#paint78_linear_11_126)"/>
<path d="M511.168 4.69694C516.524 -0.866424 525.208 -0.866422 530.564 4.69694C535.92 10.2603 535.92 19.2803 530.564 24.8437L361.852 200.09C356.496 205.653 347.812 205.653 342.456 200.09C337.1 194.527 337.1 185.507 342.456 179.943L511.168 4.69694Z" fill="url(#paint79_linear_11_126)"/>
<path d="M567.879 4.69694C573.235 -0.866426 581.919 -0.866422 587.275 4.69694C592.63 10.2603 592.63 19.2803 587.275 24.8437L459.783 157.273C454.427 162.837 445.743 162.837 440.387 157.273C435.031 151.71 435.031 142.69 440.387 137.127L567.879 4.69694Z" fill="url(#paint80_linear_11_126)"/>
<path d="M412.615 165.975C417.971 160.411 426.655 160.411 432.011 165.975C437.367 171.538 437.367 180.558 432.011 186.121L396.89 222.602C391.534 228.165 382.851 228.165 377.495 222.602C372.139 217.039 372.139 208.019 377.495 202.455L412.615 165.975Z" fill="url(#paint81_linear_11_126)"/>
<path d="M543.299 89.1372C548.655 83.5738 557.339 83.5738 562.695 89.1372C568.05 94.7005 568.05 103.721 562.695 109.284L400.044 278.234C394.688 283.797 386.004 283.797 380.649 278.234C375.293 272.671 375.293 263.651 380.649 258.087L543.299 89.1372Z" fill="url(#paint82_linear_11_126)"/>
<path d="M624.591 4.69696C629.947 -0.866407 638.63 -0.866422 643.986 4.69694C649.342 10.2603 649.342 19.2803 643.986 24.8437L591.413 79.4527C586.057 85.016 577.374 85.016 572.018 79.4527C566.662 73.8893 566.662 64.8693 572.018 59.306L624.591 4.69696Z" fill="url(#paint83_linear_11_126)"/>
<path d="M681.302 4.69696C686.658 -0.866404 695.341 -0.866422 700.697 4.69694C706.053 10.2603 706.053 19.2803 700.697 24.8437L401.655 335.469C396.299 341.032 387.615 341.032 382.259 335.469C376.903 329.905 376.903 320.885 382.259 315.322L681.302 4.69696Z" fill="url(#paint84_linear_11_126)"/>
<path d="M507.097 244.556C512.453 238.993 521.137 238.993 526.493 244.556C531.849 250.12 531.849 259.14 526.493 264.703L404.294 391.635C398.938 397.198 390.254 397.198 384.898 391.635C379.542 386.072 379.542 377.052 384.898 371.488L507.097 244.556Z" fill="url(#paint85_linear_11_126)"/>
<path d="M738.013 4.69694C743.369 -0.866422 752.053 -0.866422 757.409 4.69694C762.765 10.2603 762.765 19.2803 757.409 24.8437L700.335 84.1284C694.979 89.6918 686.295 89.6918 680.939 84.1284C675.583 78.5651 675.583 69.5451 680.939 63.9817L738.013 4.69694Z" fill="url(#paint86_linear_11_126)"/>
<path d="M653.675 92.3015C659.031 86.7382 667.714 86.7382 673.07 92.3016C678.426 97.8649 678.426 106.885 673.07 112.448L556.771 233.251C551.416 238.815 542.732 238.815 537.376 233.251C532.02 227.688 532.02 218.668 537.376 213.105L653.675 92.3015Z" fill="url(#paint87_linear_11_126)"/>
<path d="M582.147 224.084C587.503 218.52 596.186 218.52 601.542 224.084C606.898 229.647 606.898 238.667 601.542 244.23L408.4 444.853C403.044 450.417 394.36 450.417 389.004 444.853C383.648 439.29 383.648 430.27 389.004 424.707L582.147 224.084Z" fill="url(#paint88_linear_11_126)"/>
<path d="M582.088 281.922C587.444 276.358 596.127 276.358 601.483 281.922C606.839 287.485 606.839 296.505 601.483 302.068L482.935 425.209C477.579 430.772 468.895 430.772 463.539 425.209C458.183 419.645 458.183 410.625 463.539 405.062L582.088 281.922Z" fill="url(#paint89_linear_11_126)"/>
<path d="M437.154 432.469C442.509 426.906 451.193 426.906 456.549 432.469C461.905 438.033 461.905 447.053 456.549 452.616L408.341 502.691C402.985 508.255 394.301 508.255 388.945 502.691C383.589 497.128 383.589 488.108 388.945 482.545L437.154 432.469Z" fill="url(#paint90_linear_11_126)"/>
<path d="M582.029 339.76C587.385 334.197 596.069 334.197 601.425 339.76C606.78 345.323 606.78 354.343 601.425 359.907L408.282 560.53C402.926 566.093 394.243 566.093 388.887 560.53C383.531 554.966 383.531 545.946 388.887 540.383L582.029 339.76Z" fill="url(#paint91_linear_11_126)"/>
<path d="M581.97 397.598C587.326 392.035 596.01 392.035 601.366 397.598C606.722 403.162 606.722 412.182 601.366 417.745L565.52 454.979C560.164 460.542 551.481 460.542 546.125 454.979C540.769 449.416 540.769 440.396 546.125 434.832L581.97 397.598Z" fill="url(#paint92_linear_11_126)"/>
<path d="M514.649 467.527C520.005 461.963 528.689 461.963 534.045 467.527C539.401 473.09 539.401 482.11 534.045 487.673L408.223 618.368C402.867 623.932 394.183 623.932 388.827 618.368C383.471 612.805 383.471 603.785 388.827 598.222L514.649 467.527Z" fill="url(#paint93_linear_11_126)"/>
<path d="M581.911 455.437C587.267 449.873 595.951 449.873 601.306 455.437C606.662 461 606.662 470.02 601.306 475.583L517.459 562.678C512.103 568.242 503.419 568.242 498.063 562.678C492.707 557.115 492.707 548.095 498.063 542.532L581.911 455.437Z" fill="url(#paint94_linear_11_126)"/>
<path d="M469.195 572.518C474.551 566.955 483.235 566.955 488.591 572.518C493.947 578.081 493.947 587.101 488.591 592.665L408.164 676.206C402.808 681.77 394.125 681.77 388.769 676.206C383.413 670.643 383.413 661.623 388.769 656.06L469.195 572.518Z" fill="url(#paint95_linear_11_126)"/>
<path d="M581.852 513.275C587.208 507.712 595.891 507.712 601.247 513.275C606.603 518.838 606.603 527.858 601.247 533.422L408.105 734.045C402.749 739.608 394.065 739.608 388.709 734.045C383.354 728.481 383.354 719.461 388.709 713.898L581.852 513.275Z" fill="url(#paint96_linear_11_126)"/>
<path d="M581.793 571.113C587.149 565.55 595.833 565.55 601.189 571.113C606.545 576.677 606.545 585.697 601.189 591.26L513.544 682.3C508.188 687.863 499.504 687.863 494.148 682.3C488.792 676.736 488.792 667.716 494.148 662.153L581.793 571.113Z" fill="url(#paint97_linear_11_126)"/>
<path d="M467.674 689.653C473.03 684.089 481.713 684.089 487.069 689.653C492.425 695.216 492.425 704.236 487.069 709.799L408.046 791.883C402.691 797.446 394.007 797.446 388.651 791.883C383.295 786.319 383.295 777.299 388.651 771.736L467.674 689.653Z" fill="url(#paint98_linear_11_126)"/>
<path d="M581.734 628.951C587.09 623.388 595.774 623.388 601.13 628.951C606.486 634.514 606.486 643.534 601.13 649.098L407.987 849.721C402.631 855.284 393.948 855.284 388.592 849.721C383.236 844.158 383.236 835.138 388.592 829.574L581.734 628.951Z" fill="url(#paint99_linear_11_126)"/>
<path d="M581.675 686.79C587.031 681.226 595.715 681.226 601.071 686.79C606.427 692.353 606.427 701.373 601.071 706.936L572.564 736.547C567.209 742.11 558.525 742.11 553.169 736.547C547.813 730.984 547.813 721.964 553.169 716.4L581.675 686.79Z" fill="url(#paint100_linear_11_126)"/>
<path d="M526.511 744.09C531.867 738.527 540.551 738.527 545.907 744.09C551.263 749.654 551.263 758.674 545.907 764.237L407.929 907.559C402.573 913.123 393.889 913.123 388.533 907.559C383.177 901.996 383.177 892.976 388.533 887.413L526.511 744.09Z" fill="url(#paint101_linear_11_126)"/>
<path d="M788.997 10.6464C794.353 5.08299 803.036 5.08299 808.392 10.6464C813.748 16.2097 813.748 25.2297 808.392 30.7931L645.408 200.09C640.052 205.653 631.368 205.653 626.012 200.09C620.657 194.527 620.657 185.507 626.012 179.943L788.997 10.6464Z" fill="url(#paint102_linear_11_126)"/>
<path d="M721.402 139.767C726.758 134.203 735.442 134.203 740.797 139.767C746.153 145.33 746.153 154.35 740.797 159.914L702.119 200.09C696.763 205.654 688.079 205.654 682.723 200.09C677.368 194.527 677.368 185.507 682.723 179.943L721.402 139.767Z" fill="url(#paint103_linear_11_126)"/>
<path d="M832.389 24.4811C837.745 18.9177 846.428 18.9177 851.784 24.4811C857.14 30.0445 857.14 39.0645 851.784 44.6278L770.422 129.142C765.066 134.705 756.382 134.705 751.026 129.142C745.67 123.578 745.67 114.558 751.026 108.995L832.389 24.4811Z" fill="url(#paint104_linear_11_126)"/>
<path d="M863.752 50.8111C869.108 45.2478 877.791 45.2478 883.147 50.8111C888.503 56.3745 888.503 65.3945 883.147 70.9578L758.83 200.09C753.474 205.653 744.79 205.653 739.435 200.09C734.079 194.527 734.079 185.507 739.435 179.943L863.752 50.8111Z" fill="url(#paint105_linear_11_126)"/>
<path d="M899.864 227.713C894.508 233.277 885.825 233.277 880.469 227.713C875.113 222.15 875.113 213.13 880.469 207.566L906.994 180.013C912.35 174.45 921.034 174.45 926.39 180.013C931.746 185.577 931.746 194.597 926.39 200.16L899.864 227.713Z" fill="url(#paint106_linear_11_126)"/>
<path d="M861.675 211.756C856.319 217.32 847.636 217.32 842.28 211.756C836.924 206.193 836.924 197.173 842.28 191.61L864.354 168.68C869.71 163.117 878.394 163.117 883.75 168.68C889.105 174.244 889.105 183.264 883.75 188.827L861.675 211.756Z" fill="url(#paint107_linear_11_126)"/>
<path d="M910.468 161.074C905.112 166.638 896.428 166.638 891.072 161.074C885.716 155.511 885.716 146.491 891.072 140.928L899.739 131.925C905.095 126.362 913.778 126.362 919.134 131.925C924.49 137.489 924.49 146.509 919.134 152.072L910.468 161.074Z" fill="url(#paint108_linear_11_126)"/>
<path d="M853.807 160.543C848.451 166.106 839.768 166.106 834.412 160.543C829.056 154.98 829.056 145.96 834.412 140.396L884.853 88.0014C890.209 82.438 898.893 82.438 904.248 88.0014C909.604 93.5648 909.604 102.585 904.248 108.148L853.807 160.543Z" fill="url(#paint109_linear_11_126)"/>
<path d="M812.038 203.93C806.682 209.494 797.998 209.494 792.642 203.93C787.286 198.367 787.286 189.347 792.642 183.784L808.459 167.354C813.815 161.791 822.499 161.791 827.854 167.354C833.21 172.918 833.21 181.938 827.854 187.501L812.038 203.93Z" fill="url(#paint110_linear_11_126)"/>
<path d="M601.937 996.352C607.293 990.789 607.293 981.769 601.937 976.205C596.581 970.642 587.897 970.642 582.541 976.205C577.185 981.769 577.185 990.789 582.541 996.352C587.897 1001.92 596.581 1001.92 601.937 996.352Z" fill="url(#paint111_linear_11_126)"/>
<path d="M601.937 940.728C607.293 935.164 607.293 926.144 601.937 920.581C596.581 915.017 587.897 915.017 582.541 920.581L532.727 972.324C527.371 977.888 527.371 986.908 532.727 992.471C538.083 998.034 546.767 998.034 552.123 992.471L601.937 940.728Z" fill="url(#paint112_linear_11_126)"/>
<path d="M526.08 960.136C531.436 954.573 531.436 945.553 526.08 939.989C520.724 934.426 512.04 934.426 506.684 939.989L479.795 967.92C474.439 973.484 474.439 982.504 479.795 988.067C485.151 993.63 493.835 993.63 499.19 988.067L526.08 960.136Z" fill="url(#paint113_linear_11_126)"/>
<path d="M601.937 881.341C607.293 875.778 607.293 866.758 601.937 861.195C596.581 855.631 587.897 855.631 582.541 861.195L531.89 913.808C526.534 919.371 526.534 928.391 531.89 933.955C537.245 939.518 545.929 939.518 551.285 933.955L601.937 881.341Z" fill="url(#paint114_linear_11_126)"/>
<path d="M601.937 823.113C607.293 817.549 607.293 808.529 601.937 802.966C596.581 797.403 587.897 797.403 582.541 802.966L439.818 951.216C434.463 956.78 434.463 965.8 439.818 971.363C445.174 976.927 453.858 976.927 459.214 971.363L601.937 823.113Z" fill="url(#paint115_linear_11_126)"/>
<path d="M515.084 854.422C520.44 848.859 520.44 839.839 515.084 834.275C509.728 828.712 501.044 828.712 495.688 834.275L407.842 925.523C402.486 931.087 402.486 940.107 407.842 945.67C413.198 951.233 421.882 951.233 427.238 945.67L515.084 854.422Z" fill="url(#paint116_linear_11_126)"/>
<path d="M601.937 764.205C607.293 758.642 607.293 749.622 601.937 744.058C596.581 738.495 587.897 738.495 582.541 744.058L521.256 807.717C515.9 813.28 515.9 822.3 521.256 827.863C526.612 833.427 535.296 833.427 540.652 827.863L601.937 764.205Z" fill="url(#paint117_linear_11_126)"/>
<path d="M915.59 226.363C920.946 220.8 929.629 220.8 934.985 226.363C940.341 231.926 940.341 240.946 934.985 246.51C929.629 252.073 920.946 252.073 915.59 246.51C910.234 240.946 910.234 231.926 915.59 226.363Z" fill="url(#paint118_linear_11_126)"/>
<defs>
<linearGradient id="paint0_linear_11_126" x1="94.4052" y1="-487.101" x2="970.387" y2="1431.8" gradientUnits="userSpaceOnUse">
<stop stop-color="#1EB7CC"/>
<stop offset="1" stop-color="#0E1DA0"/>
</linearGradient>
<linearGradient id="paint1_linear_11_126" x1="94.4052" y1="-487.101" x2="970.387" y2="1431.8" gradientUnits="userSpaceOnUse">
<stop stop-color="#1EB7CC"/>
<stop offset="1" stop-color="#0E1DA0"/>
</linearGradient>
<linearGradient id="paint2_linear_11_126" x1="94.4052" y1="-487.101" x2="970.387" y2="1431.8" gradientUnits="userSpaceOnUse">
<stop stop-color="#1EB7CC"/>
<stop offset="1" stop-color="#0E1DA0"/>
</linearGradient>
<linearGradient id="paint3_linear_11_126" x1="94.4052" y1="-487.101" x2="970.387" y2="1431.8" gradientUnits="userSpaceOnUse">
<stop stop-color="#1EB7CC"/>
<stop offset="1" stop-color="#0E1DA0"/>
</linearGradient>
<linearGradient id="paint4_linear_11_126" x1="94.4052" y1="-487.101" x2="970.387" y2="1431.8" gradientUnits="userSpaceOnUse">
<stop stop-color="#1EB7CC"/>
<stop offset="1" stop-color="#0E1DA0"/>
</linearGradient>
<linearGradient id="paint5_linear_11_126" x1="94.4052" y1="-487.101" x2="970.387" y2="1431.8" gradientUnits="userSpaceOnUse">
<stop stop-color="#1EB7CC"/>
<stop offset="1" stop-color="#0E1DA0"/>
</linearGradient>
<linearGradient id="paint6_linear_11_126" x1="94.4052" y1="-487.101" x2="970.387" y2="1431.8" gradientUnits="userSpaceOnUse">
<stop stop-color="#1EB7CC"/>
<stop offset="1" stop-color="#0E1DA0"/>
</linearGradient>
<linearGradient id="paint7_linear_11_126" x1="94.4052" y1="-487.101" x2="970.387" y2="1431.8" gradientUnits="userSpaceOnUse">
<stop stop-color="#1EB7CC"/>
<stop offset="1" stop-color="#0E1DA0"/>
</linearGradient>
<linearGradient id="paint8_linear_11_126" x1="94.4052" y1="-487.101" x2="970.387" y2="1431.8" gradientUnits="userSpaceOnUse">
<stop stop-color="#1EB7CC"/>
<stop offset="1" stop-color="#0E1DA0"/>
</linearGradient>
<linearGradient id="paint9_linear_11_126" x1="94.4052" y1="-487.101" x2="970.387" y2="1431.8" gradientUnits="userSpaceOnUse">
<stop stop-color="#1EB7CC"/>
<stop offset="1" stop-color="#0E1DA0"/>
</linearGradient>
<linearGradient id="paint10_linear_11_126" x1="94.4052" y1="-487.101" x2="970.387" y2="1431.8" gradientUnits="userSpaceOnUse">
<stop stop-color="#1EB7CC"/>
<stop offset="1" stop-color="#0E1DA0"/>
</linearGradient>
<linearGradient id="paint11_linear_11_126" x1="94.4052" y1="-487.101" x2="970.387" y2="1431.8" gradientUnits="userSpaceOnUse">
<stop stop-color="#1EB7CC"/>
<stop offset="1" stop-color="#0E1DA0"/>
</linearGradient>
<linearGradient id="paint12_linear_11_126" x1="94.4052" y1="-487.101" x2="970.387" y2="1431.8" gradientUnits="userSpaceOnUse">
<stop stop-color="#1EB7CC"/>
<stop offset="1" stop-color="#0E1DA0"/>
</linearGradient>
<linearGradient id="paint13_linear_11_126" x1="94.4052" y1="-487.101" x2="970.387" y2="1431.8" gradientUnits="userSpaceOnUse">
<stop stop-color="#1EB7CC"/>
<stop offset="1" stop-color="#0E1DA0"/>
</linearGradient>
<linearGradient id="paint14_linear_11_126" x1="94.4052" y1="-487.101" x2="970.387" y2="1431.8" gradientUnits="userSpaceOnUse">
<stop stop-color="#1EB7CC"/>
<stop offset="1" stop-color="#0E1DA0"/>
</linearGradient>
<linearGradient id="paint15_linear_11_126" x1="94.4052" y1="-487.101" x2="970.387" y2="1431.8" gradientUnits="userSpaceOnUse">
<stop stop-color="#1EB7CC"/>
<stop offset="1" stop-color="#0E1DA0"/>
</linearGradient>
<linearGradient id="paint16_linear_11_126" x1="94.4052" y1="-487.101" x2="970.387" y2="1431.8" gradientUnits="userSpaceOnUse">
<stop stop-color="#1EB7CC"/>
<stop offset="1" stop-color="#0E1DA0"/>
</linearGradient>
<linearGradient id="paint17_linear_11_126" x1="94.4052" y1="-487.101" x2="970.387" y2="1431.8" gradientUnits="userSpaceOnUse">
<stop stop-color="#1EB7CC"/>
<stop offset="1" stop-color="#0E1DA0"/>
</linearGradient>
<linearGradient id="paint18_linear_11_126" x1="94.4052" y1="-487.101" x2="970.387" y2="1431.8" gradientUnits="userSpaceOnUse">
<stop stop-color="#1EB7CC"/>
<stop offset="1" stop-color="#0E1DA0"/>
</linearGradient>
<linearGradient id="paint19_linear_11_126" x1="94.4052" y1="-487.101" x2="970.387" y2="1431.8" gradientUnits="userSpaceOnUse">
<stop stop-color="#1EB7CC"/>
<stop offset="1" stop-color="#0E1DA0"/>
</linearGradient>
<linearGradient id="paint20_linear_11_126" x1="94.4052" y1="-487.101" x2="970.387" y2="1431.8" gradientUnits="userSpaceOnUse">
<stop stop-color="#1EB7CC"/>
<stop offset="1" stop-color="#0E1DA0"/>
</linearGradient>
<linearGradient id="paint21_linear_11_126" x1="94.4052" y1="-487.101" x2="970.387" y2="1431.8" gradientUnits="userSpaceOnUse">
<stop stop-color="#1EB7CC"/>
<stop offset="1" stop-color="#0E1DA0"/>
</linearGradient>
<linearGradient id="paint22_linear_11_126" x1="94.4052" y1="-487.101" x2="970.387" y2="1431.8" gradientUnits="userSpaceOnUse">
<stop stop-color="#1EB7CC"/>
<stop offset="1" stop-color="#0E1DA0"/>
</linearGradient>
<linearGradient id="paint23_linear_11_126" x1="94.4052" y1="-487.101" x2="970.387" y2="1431.8" gradientUnits="userSpaceOnUse">
<stop stop-color="#1EB7CC"/>
<stop offset="1" stop-color="#0E1DA0"/>
</linearGradient>
<linearGradient id="paint24_linear_11_126" x1="94.4052" y1="-487.101" x2="970.387" y2="1431.8" gradientUnits="userSpaceOnUse">
<stop stop-color="#1EB7CC"/>
<stop offset="1" stop-color="#0E1DA0"/>
</linearGradient>
<linearGradient id="paint25_linear_11_126" x1="94.4052" y1="-487.101" x2="970.387" y2="1431.8" gradientUnits="userSpaceOnUse">
<stop stop-color="#1EB7CC"/>
<stop offset="1" stop-color="#0E1DA0"/>
</linearGradient>
<linearGradient id="paint26_linear_11_126" x1="94.4052" y1="-487.101" x2="970.387" y2="1431.8" gradientUnits="userSpaceOnUse">
<stop stop-color="#1EB7CC"/>
<stop offset="1" stop-color="#0E1DA0"/>
</linearGradient>
<linearGradient id="paint27_linear_11_126" x1="94.4052" y1="-487.101" x2="970.387" y2="1431.8" gradientUnits="userSpaceOnUse">
<stop stop-color="#1EB7CC"/>
<stop offset="1" stop-color="#0E1DA0"/>
</linearGradient>
<linearGradient id="paint28_linear_11_126" x1="94.4052" y1="-487.101" x2="970.387" y2="1431.8" gradientUnits="userSpaceOnUse">
<stop stop-color="#1EB7CC"/>
<stop offset="1" stop-color="#0E1DA0"/>
</linearGradient>
<linearGradient id="paint29_linear_11_126" x1="94.4052" y1="-487.101" x2="970.387" y2="1431.8" gradientUnits="userSpaceOnUse">
<stop stop-color="#1EB7CC"/>
<stop offset="1" stop-color="#0E1DA0"/>
</linearGradient>
<linearGradient id="paint30_linear_11_126" x1="94.4052" y1="-487.101" x2="970.387" y2="1431.8" gradientUnits="userSpaceOnUse">
<stop stop-color="#1EB7CC"/>
<stop offset="1" stop-color="#0E1DA0"/>
</linearGradient>
<linearGradient id="paint31_linear_11_126" x1="94.4052" y1="-487.101" x2="970.387" y2="1431.8" gradientUnits="userSpaceOnUse">
<stop stop-color="#1EB7CC"/>
<stop offset="1" stop-color="#0E1DA0"/>
</linearGradient>
<linearGradient id="paint32_linear_11_126" x1="94.4052" y1="-487.101" x2="970.387" y2="1431.8" gradientUnits="userSpaceOnUse">
<stop stop-color="#1EB7CC"/>
<stop offset="1" stop-color="#0E1DA0"/>
</linearGradient>
<linearGradient id="paint33_linear_11_126" x1="94.4052" y1="-487.101" x2="970.387" y2="1431.8" gradientUnits="userSpaceOnUse">
<stop stop-color="#1EB7CC"/>
<stop offset="1" stop-color="#0E1DA0"/>
</linearGradient>
<linearGradient id="paint34_linear_11_126" x1="94.4052" y1="-487.101" x2="970.387" y2="1431.8" gradientUnits="userSpaceOnUse">
<stop stop-color="#1EB7CC"/>
<stop offset="1" stop-color="#0E1DA0"/>
</linearGradient>
<linearGradient id="paint35_linear_11_126" x1="94.4052" y1="-487.101" x2="970.387" y2="1431.8" gradientUnits="userSpaceOnUse">
<stop stop-color="#1EB7CC"/>
<stop offset="1" stop-color="#0E1DA0"/>
</linearGradient>
<linearGradient id="paint36_linear_11_126" x1="94.4052" y1="-487.101" x2="970.387" y2="1431.8" gradientUnits="userSpaceOnUse">
<stop stop-color="#1EB7CC"/>
<stop offset="1" stop-color="#0E1DA0"/>
</linearGradient>
<linearGradient id="paint37_linear_11_126" x1="94.4052" y1="-487.101" x2="970.387" y2="1431.8" gradientUnits="userSpaceOnUse">
<stop stop-color="#1EB7CC"/>
<stop offset="1" stop-color="#0E1DA0"/>
</linearGradient>
<linearGradient id="paint38_linear_11_126" x1="94.4052" y1="-487.101" x2="970.387" y2="1431.8" gradientUnits="userSpaceOnUse">
<stop stop-color="#1EB7CC"/>
<stop offset="1" stop-color="#0E1DA0"/>
</linearGradient>
<linearGradient id="paint39_linear_11_126" x1="94.4052" y1="-487.101" x2="970.387" y2="1431.8" gradientUnits="userSpaceOnUse">
<stop stop-color="#1EB7CC"/>
<stop offset="1" stop-color="#0E1DA0"/>
</linearGradient>
<linearGradient id="paint40_linear_11_126" x1="94.4052" y1="-487.101" x2="970.387" y2="1431.8" gradientUnits="userSpaceOnUse">
<stop stop-color="#1EB7CC"/>
<stop offset="1" stop-color="#0E1DA0"/>
</linearGradient>
<linearGradient id="paint41_linear_11_126" x1="94.4052" y1="-487.101" x2="970.387" y2="1431.8" gradientUnits="userSpaceOnUse">
<stop stop-color="#1EB7CC"/>
<stop offset="1" stop-color="#0E1DA0"/>
</linearGradient>
<linearGradient id="paint42_linear_11_126" x1="94.4052" y1="-487.101" x2="970.387" y2="1431.8" gradientUnits="userSpaceOnUse">
<stop stop-color="#1EB7CC"/>
<stop offset="1" stop-color="#0E1DA0"/>
</linearGradient>
<linearGradient id="paint43_linear_11_126" x1="94.4052" y1="-487.101" x2="970.387" y2="1431.8" gradientUnits="userSpaceOnUse">
<stop stop-color="#1EB7CC"/>
<stop offset="1" stop-color="#0E1DA0"/>
</linearGradient>
<linearGradient id="paint44_linear_11_126" x1="94.4052" y1="-487.101" x2="970.387" y2="1431.8" gradientUnits="userSpaceOnUse">
<stop stop-color="#1EB7CC"/>
<stop offset="1" stop-color="#0E1DA0"/>
</linearGradient>
<linearGradient id="paint45_linear_11_126" x1="94.4052" y1="-487.101" x2="970.387" y2="1431.8" gradientUnits="userSpaceOnUse">
<stop stop-color="#1EB7CC"/>
<stop offset="1" stop-color="#0E1DA0"/>
</linearGradient>
<linearGradient id="paint46_linear_11_126" x1="94.4052" y1="-487.101" x2="970.387" y2="1431.8" gradientUnits="userSpaceOnUse">
<stop stop-color="#1EB7CC"/>
<stop offset="1" stop-color="#0E1DA0"/>
</linearGradient>
<linearGradient id="paint47_linear_11_126" x1="94.4052" y1="-487.101" x2="970.387" y2="1431.8" gradientUnits="userSpaceOnUse">
<stop stop-color="#1EB7CC"/>
<stop offset="1" stop-color="#0E1DA0"/>
</linearGradient>
<linearGradient id="paint48_linear_11_126" x1="94.4052" y1="-487.101" x2="970.387" y2="1431.8" gradientUnits="userSpaceOnUse">
<stop stop-color="#1EB7CC"/>
<stop offset="1" stop-color="#0E1DA0"/>
</linearGradient>
<linearGradient id="paint49_linear_11_126" x1="94.4052" y1="-487.101" x2="970.387" y2="1431.8" gradientUnits="userSpaceOnUse">
<stop stop-color="#1EB7CC"/>
<stop offset="1" stop-color="#0E1DA0"/>
</linearGradient>
<linearGradient id="paint50_linear_11_126" x1="94.4052" y1="-487.101" x2="970.387" y2="1431.8" gradientUnits="userSpaceOnUse">
<stop stop-color="#1EB7CC"/>
<stop offset="1" stop-color="#0E1DA0"/>
</linearGradient>
<linearGradient id="paint51_linear_11_126" x1="94.4052" y1="-487.101" x2="970.387" y2="1431.8" gradientUnits="userSpaceOnUse">
<stop stop-color="#1EB7CC"/>
<stop offset="1" stop-color="#0E1DA0"/>
</linearGradient>
<linearGradient id="paint52_linear_11_126" x1="94.4052" y1="-487.101" x2="970.387" y2="1431.8" gradientUnits="userSpaceOnUse">
<stop stop-color="#1EB7CC"/>
<stop offset="1" stop-color="#0E1DA0"/>
</linearGradient>
<linearGradient id="paint53_linear_11_126" x1="94.4052" y1="-487.101" x2="970.387" y2="1431.8" gradientUnits="userSpaceOnUse">
<stop stop-color="#1EB7CC"/>
<stop offset="1" stop-color="#0E1DA0"/>
</linearGradient>
<linearGradient id="paint54_linear_11_126" x1="94.4052" y1="-487.101" x2="970.387" y2="1431.8" gradientUnits="userSpaceOnUse">
<stop stop-color="#1EB7CC"/>
<stop offset="1" stop-color="#0E1DA0"/>
</linearGradient>
<linearGradient id="paint55_linear_11_126" x1="94.4052" y1="-487.101" x2="970.387" y2="1431.8" gradientUnits="userSpaceOnUse">
<stop stop-color="#1EB7CC"/>
<stop offset="1" stop-color="#0E1DA0"/>
</linearGradient>
<linearGradient id="paint56_linear_11_126" x1="94.4052" y1="-487.101" x2="970.387" y2="1431.8" gradientUnits="userSpaceOnUse">
<stop stop-color="#1EB7CC"/>
<stop offset="1" stop-color="#0E1DA0"/>
</linearGradient>
<linearGradient id="paint57_linear_11_126" x1="94.4052" y1="-487.101" x2="970.387" y2="1431.8" gradientUnits="userSpaceOnUse">
<stop stop-color="#1EB7CC"/>
<stop offset="1" stop-color="#0E1DA0"/>
</linearGradient>
<linearGradient id="paint58_linear_11_126" x1="94.4052" y1="-487.101" x2="970.387" y2="1431.8" gradientUnits="userSpaceOnUse">
<stop stop-color="#1EB7CC"/>
<stop offset="1" stop-color="#0E1DA0"/>
</linearGradient>
<linearGradient id="paint59_linear_11_126" x1="94.4052" y1="-487.101" x2="970.387" y2="1431.8" gradientUnits="userSpaceOnUse">
<stop stop-color="#1EB7CC"/>
<stop offset="1" stop-color="#0E1DA0"/>
</linearGradient>
<linearGradient id="paint60_linear_11_126" x1="94.4052" y1="-487.101" x2="970.387" y2="1431.8" gradientUnits="userSpaceOnUse">
<stop stop-color="#1EB7CC"/>
<stop offset="1" stop-color="#0E1DA0"/>
</linearGradient>
<linearGradient id="paint61_linear_11_126" x1="94.4052" y1="-487.101" x2="970.387" y2="1431.8" gradientUnits="userSpaceOnUse">
<stop stop-color="#1EB7CC"/>
<stop offset="1" stop-color="#0E1DA0"/>
</linearGradient>
<linearGradient id="paint62_linear_11_126" x1="94.4052" y1="-487.101" x2="970.387" y2="1431.8" gradientUnits="userSpaceOnUse">
<stop stop-color="#1EB7CC"/>
<stop offset="1" stop-color="#0E1DA0"/>
</linearGradient>
<linearGradient id="paint63_linear_11_126" x1="94.4052" y1="-487.101" x2="970.387" y2="1431.8" gradientUnits="userSpaceOnUse">
<stop stop-color="#1EB7CC"/>
<stop offset="1" stop-color="#0E1DA0"/>
</linearGradient>
<linearGradient id="paint64_linear_11_126" x1="94.4052" y1="-487.101" x2="970.387" y2="1431.8" gradientUnits="userSpaceOnUse">
<stop stop-color="#1EB7CC"/>
<stop offset="1" stop-color="#0E1DA0"/>
</linearGradient>
<linearGradient id="paint65_linear_11_126" x1="94.4052" y1="-487.101" x2="970.387" y2="1431.8" gradientUnits="userSpaceOnUse">
<stop stop-color="#1EB7CC"/>
<stop offset="1" stop-color="#0E1DA0"/>
</linearGradient>
<linearGradient id="paint66_linear_11_126" x1="94.4052" y1="-487.101" x2="970.387" y2="1431.8" gradientUnits="userSpaceOnUse">
<stop stop-color="#1EB7CC"/>
<stop offset="1" stop-color="#0E1DA0"/>
</linearGradient>
<linearGradient id="paint67_linear_11_126" x1="94.4052" y1="-487.101" x2="970.387" y2="1431.8" gradientUnits="userSpaceOnUse">
<stop stop-color="#1EB7CC"/>
<stop offset="1" stop-color="#0E1DA0"/>
</linearGradient>
<linearGradient id="paint68_linear_11_126" x1="94.4052" y1="-487.101" x2="970.387" y2="1431.8" gradientUnits="userSpaceOnUse">
<stop stop-color="#1EB7CC"/>
<stop offset="1" stop-color="#0E1DA0"/>
</linearGradient>
<linearGradient id="paint69_linear_11_126" x1="94.4052" y1="-487.101" x2="970.387" y2="1431.8" gradientUnits="userSpaceOnUse">
<stop stop-color="#1EB7CC"/>
<stop offset="1" stop-color="#0E1DA0"/>
</linearGradient>
<linearGradient id="paint70_linear_11_126" x1="94.4052" y1="-487.101" x2="970.387" y2="1431.8" gradientUnits="userSpaceOnUse">
<stop stop-color="#1EB7CC"/>
<stop offset="1" stop-color="#0E1DA0"/>
</linearGradient>
<linearGradient id="paint71_linear_11_126" x1="94.4052" y1="-487.101" x2="970.387" y2="1431.8" gradientUnits="userSpaceOnUse">
<stop stop-color="#1EB7CC"/>
<stop offset="1" stop-color="#0E1DA0"/>
</linearGradient>
<linearGradient id="paint72_linear_11_126" x1="94.4052" y1="-487.101" x2="970.387" y2="1431.8" gradientUnits="userSpaceOnUse">
<stop stop-color="#1EB7CC"/>
<stop offset="1" stop-color="#0E1DA0"/>
</linearGradient>
<linearGradient id="paint73_linear_11_126" x1="94.4052" y1="-487.101" x2="970.387" y2="1431.8" gradientUnits="userSpaceOnUse">
<stop stop-color="#1EB7CC"/>
<stop offset="1" stop-color="#0E1DA0"/>
</linearGradient>
<linearGradient id="paint74_linear_11_126" x1="94.4052" y1="-487.101" x2="970.387" y2="1431.8" gradientUnits="userSpaceOnUse">
<stop stop-color="#1EB7CC"/>
<stop offset="1" stop-color="#0E1DA0"/>
</linearGradient>
<linearGradient id="paint75_linear_11_126" x1="94.4052" y1="-487.101" x2="970.387" y2="1431.8" gradientUnits="userSpaceOnUse">
<stop stop-color="#1EB7CC"/>
<stop offset="1" stop-color="#0E1DA0"/>
</linearGradient>
<linearGradient id="paint76_linear_11_126" x1="94.4052" y1="-487.101" x2="970.387" y2="1431.8" gradientUnits="userSpaceOnUse">
<stop stop-color="#1EB7CC"/>
<stop offset="1" stop-color="#0E1DA0"/>
</linearGradient>
<linearGradient id="paint77_linear_11_126" x1="94.4052" y1="-487.101" x2="970.387" y2="1431.8" gradientUnits="userSpaceOnUse">
<stop stop-color="#1EB7CC"/>
<stop offset="1" stop-color="#0E1DA0"/>
</linearGradient>
<linearGradient id="paint78_linear_11_126" x1="94.4052" y1="-487.101" x2="970.387" y2="1431.8" gradientUnits="userSpaceOnUse">
<stop stop-color="#1EB7CC"/>
<stop offset="1" stop-color="#0E1DA0"/>
</linearGradient>
<linearGradient id="paint79_linear_11_126" x1="94.4052" y1="-487.101" x2="970.387" y2="1431.8" gradientUnits="userSpaceOnUse">
<stop stop-color="#1EB7CC"/>
<stop offset="1" stop-color="#0E1DA0"/>
</linearGradient>
<linearGradient id="paint80_linear_11_126" x1="94.4052" y1="-487.101" x2="970.387" y2="1431.8" gradientUnits="userSpaceOnUse">
<stop stop-color="#1EB7CC"/>
<stop offset="1" stop-color="#0E1DA0"/>
</linearGradient>
<linearGradient id="paint81_linear_11_126" x1="94.4052" y1="-487.101" x2="970.387" y2="1431.8" gradientUnits="userSpaceOnUse">
<stop stop-color="#1EB7CC"/>
<stop offset="1" stop-color="#0E1DA0"/>
</linearGradient>
<linearGradient id="paint82_linear_11_126" x1="94.4052" y1="-487.101" x2="970.387" y2="1431.8" gradientUnits="userSpaceOnUse">
<stop stop-color="#1EB7CC"/>
<stop offset="1" stop-color="#0E1DA0"/>
</linearGradient>
<linearGradient id="paint83_linear_11_126" x1="94.4052" y1="-487.101" x2="970.387" y2="1431.8" gradientUnits="userSpaceOnUse">
<stop stop-color="#1EB7CC"/>
<stop offset="1" stop-color="#0E1DA0"/>
</linearGradient>
<linearGradient id="paint84_linear_11_126" x1="94.4052" y1="-487.101" x2="970.387" y2="1431.8" gradientUnits="userSpaceOnUse">
<stop stop-color="#1EB7CC"/>
<stop offset="1" stop-color="#0E1DA0"/>
</linearGradient>
<linearGradient id="paint85_linear_11_126" x1="94.4052" y1="-487.101" x2="970.387" y2="1431.8" gradientUnits="userSpaceOnUse">
<stop stop-color="#1EB7CC"/>
<stop offset="1" stop-color="#0E1DA0"/>
</linearGradient>
<linearGradient id="paint86_linear_11_126" x1="94.4052" y1="-487.101" x2="970.387" y2="1431.8" gradientUnits="userSpaceOnUse">
<stop stop-color="#1EB7CC"/>
<stop offset="1" stop-color="#0E1DA0"/>
</linearGradient>
<linearGradient id="paint87_linear_11_126" x1="94.4052" y1="-487.101" x2="970.387" y2="1431.8" gradientUnits="userSpaceOnUse">
<stop stop-color="#1EB7CC"/>
<stop offset="1" stop-color="#0E1DA0"/>
</linearGradient>
<linearGradient id="paint88_linear_11_126" x1="94.4052" y1="-487.101" x2="970.387" y2="1431.8" gradientUnits="userSpaceOnUse">
<stop stop-color="#1EB7CC"/>
<stop offset="1" stop-color="#0E1DA0"/>
</linearGradient>
<linearGradient id="paint89_linear_11_126" x1="94.4052" y1="-487.101" x2="970.387" y2="1431.8" gradientUnits="userSpaceOnUse">
<stop stop-color="#1EB7CC"/>
<stop offset="1" stop-color="#0E1DA0"/>
</linearGradient>
<linearGradient id="paint90_linear_11_126" x1="94.4052" y1="-487.101" x2="970.387" y2="1431.8" gradientUnits="userSpaceOnUse">
<stop stop-color="#1EB7CC"/>
<stop offset="1" stop-color="#0E1DA0"/>
</linearGradient>
<linearGradient id="paint91_linear_11_126" x1="94.4052" y1="-487.101" x2="970.387" y2="1431.8" gradientUnits="userSpaceOnUse">
<stop stop-color="#1EB7CC"/>
<stop offset="1" stop-color="#0E1DA0"/>
</linearGradient>
<linearGradient id="paint92_linear_11_126" x1="94.4052" y1="-487.101" x2="970.387" y2="1431.8" gradientUnits="userSpaceOnUse">
<stop stop-color="#1EB7CC"/>
<stop offset="1" stop-color="#0E1DA0"/>
</linearGradient>
<linearGradient id="paint93_linear_11_126" x1="94.4052" y1="-487.101" x2="970.387" y2="1431.8" gradientUnits="userSpaceOnUse">
<stop stop-color="#1EB7CC"/>
<stop offset="1" stop-color="#0E1DA0"/>
</linearGradient>
<linearGradient id="paint94_linear_11_126" x1="94.4052" y1="-487.101" x2="970.387" y2="1431.8" gradientUnits="userSpaceOnUse">
<stop stop-color="#1EB7CC"/>
<stop offset="1" stop-color="#0E1DA0"/>
</linearGradient>
<linearGradient id="paint95_linear_11_126" x1="94.4052" y1="-487.101" x2="970.387" y2="1431.8" gradientUnits="userSpaceOnUse">
<stop stop-color="#1EB7CC"/>
<stop offset="1" stop-color="#0E1DA0"/>
</linearGradient>
<linearGradient id="paint96_linear_11_126" x1="94.4052" y1="-487.101" x2="970.387" y2="1431.8" gradientUnits="userSpaceOnUse">
<stop stop-color="#1EB7CC"/>
<stop offset="1" stop-color="#0E1DA0"/>
</linearGradient>
<linearGradient id="paint97_linear_11_126" x1="94.4052" y1="-487.101" x2="970.387" y2="1431.8" gradientUnits="userSpaceOnUse">
<stop stop-color="#1EB7CC"/>
<stop offset="1" stop-color="#0E1DA0"/>
</linearGradient>
<linearGradient id="paint98_linear_11_126" x1="94.4052" y1="-487.101" x2="970.387" y2="1431.8" gradientUnits="userSpaceOnUse">
<stop stop-color="#1EB7CC"/>
<stop offset="1" stop-color="#0E1DA0"/>
</linearGradient>
<linearGradient id="paint99_linear_11_126" x1="94.4052" y1="-487.101" x2="970.387" y2="1431.8" gradientUnits="userSpaceOnUse">
<stop stop-color="#1EB7CC"/>
<stop offset="1" stop-color="#0E1DA0"/>
</linearGradient>
<linearGradient id="paint100_linear_11_126" x1="94.4052" y1="-487.101" x2="970.387" y2="1431.8" gradientUnits="userSpaceOnUse">
<stop stop-color="#1EB7CC"/>
<stop offset="1" stop-color="#0E1DA0"/>
</linearGradient>
<linearGradient id="paint101_linear_11_126" x1="94.4052" y1="-487.101" x2="970.387" y2="1431.8" gradientUnits="userSpaceOnUse">
<stop stop-color="#1EB7CC"/>
<stop offset="1" stop-color="#0E1DA0"/>
</linearGradient>
<linearGradient id="paint102_linear_11_126" x1="94.4052" y1="-487.101" x2="970.387" y2="1431.8" gradientUnits="userSpaceOnUse">
<stop stop-color="#1EB7CC"/>
<stop offset="1" stop-color="#0E1DA0"/>
</linearGradient>
<linearGradient id="paint103_linear_11_126" x1="94.4052" y1="-487.101" x2="970.387" y2="1431.8" gradientUnits="userSpaceOnUse">
<stop stop-color="#1EB7CC"/>
<stop offset="1" stop-color="#0E1DA0"/>
</linearGradient>
<linearGradient id="paint104_linear_11_126" x1="94.4052" y1="-487.101" x2="970.387" y2="1431.8" gradientUnits="userSpaceOnUse">
<stop stop-color="#1EB7CC"/>
<stop offset="1" stop-color="#0E1DA0"/>
</linearGradient>
<linearGradient id="paint105_linear_11_126" x1="94.4052" y1="-487.101" x2="970.387" y2="1431.8" gradientUnits="userSpaceOnUse">
<stop stop-color="#1EB7CC"/>
<stop offset="1" stop-color="#0E1DA0"/>
</linearGradient>
<linearGradient id="paint106_linear_11_126" x1="94.4052" y1="-487.101" x2="970.387" y2="1431.8" gradientUnits="userSpaceOnUse">
<stop stop-color="#1EB7CC"/>
<stop offset="1" stop-color="#0E1DA0"/>
</linearGradient>
<linearGradient id="paint107_linear_11_126" x1="94.4052" y1="-487.101" x2="970.387" y2="1431.8" gradientUnits="userSpaceOnUse">
<stop stop-color="#1EB7CC"/>
<stop offset="1" stop-color="#0E1DA0"/>
</linearGradient>
<linearGradient id="paint108_linear_11_126" x1="94.4052" y1="-487.101" x2="970.387" y2="1431.8" gradientUnits="userSpaceOnUse">
<stop stop-color="#1EB7CC"/>
<stop offset="1" stop-color="#0E1DA0"/>
</linearGradient>
<linearGradient id="paint109_linear_11_126" x1="94.4052" y1="-487.101" x2="970.387" y2="1431.8" gradientUnits="userSpaceOnUse">
<stop stop-color="#1EB7CC"/>
<stop offset="1" stop-color="#0E1DA0"/>
</linearGradient>
<linearGradient id="paint110_linear_11_126" x1="94.4052" y1="-487.101" x2="970.387" y2="1431.8" gradientUnits="userSpaceOnUse">
<stop stop-color="#1EB7CC"/>
<stop offset="1" stop-color="#0E1DA0"/>
</linearGradient>
<linearGradient id="paint111_linear_11_126" x1="94.4052" y1="-487.101" x2="970.387" y2="1431.8" gradientUnits="userSpaceOnUse">
<stop stop-color="#1EB7CC"/>
<stop offset="1" stop-color="#0E1DA0"/>
</linearGradient>
<linearGradient id="paint112_linear_11_126" x1="94.4052" y1="-487.101" x2="970.387" y2="1431.8" gradientUnits="userSpaceOnUse">
<stop stop-color="#1EB7CC"/>
<stop offset="1" stop-color="#0E1DA0"/>
</linearGradient>
<linearGradient id="paint113_linear_11_126" x1="94.4052" y1="-487.101" x2="970.387" y2="1431.8" gradientUnits="userSpaceOnUse">
<stop stop-color="#1EB7CC"/>
<stop offset="1" stop-color="#0E1DA0"/>
</linearGradient>
<linearGradient id="paint114_linear_11_126" x1="94.4052" y1="-487.101" x2="970.387" y2="1431.8" gradientUnits="userSpaceOnUse">
<stop stop-color="#1EB7CC"/>
<stop offset="1" stop-color="#0E1DA0"/>
</linearGradient>
<linearGradient id="paint115_linear_11_126" x1="94.4052" y1="-487.101" x2="970.387" y2="1431.8" gradientUnits="userSpaceOnUse">
<stop stop-color="#1EB7CC"/>
<stop offset="1" stop-color="#0E1DA0"/>
</linearGradient>
<linearGradient id="paint116_linear_11_126" x1="94.4052" y1="-487.101" x2="970.387" y2="1431.8" gradientUnits="userSpaceOnUse">
<stop stop-color="#1EB7CC"/>
<stop offset="1" stop-color="#0E1DA0"/>
</linearGradient>
<linearGradient id="paint117_linear_11_126" x1="94.4052" y1="-487.101" x2="970.387" y2="1431.8" gradientUnits="userSpaceOnUse">
<stop stop-color="#1EB7CC"/>
<stop offset="1" stop-color="#0E1DA0"/>
</linearGradient>
<linearGradient id="paint118_linear_11_126" x1="94.4052" y1="-487.101" x2="970.387" y2="1431.8" gradientUnits="userSpaceOnUse">
<stop stop-color="#1EB7CC"/>
<stop offset="1" stop-color="#0E1DA0"/>
</linearGradient>
</defs>
</svg>
