{
  "asset": {
    "generator": "Khronos glTF Blender I/O v1.6.16",
    "version": "2.0"
  },
  "scene": 0,
  "scenes": [
    {
      "name": "Scene",
      "nodes": [
        0
      ]
    }
  ],
  "nodes": [
    {
      "mesh": 0,
      "name": "food_pomegranate_01"
    }
  ],
  "materials": [
    {
      "doubleSided": true,
      "name": "food_pomegranate_01",
      "normalTexture": {
        "index": 0
      },
      "pbrMetallicRoughness": {
        "baseColorTexture": {
          "index": 1
        },
        "metallicFactor": 0,
        "metallicRoughnessTexture": {
          "index": 2
        }
      }
    }
  ],
  "meshes": [
    {
      "name": "pomegranate_50k_uv.001",
      "primitives": [
        {
          "attributes": {
            "POSITION": 0,
            "NORMAL": 1,
            "TEXCOORD_0": 2
          },
          "indices": 3,
          "material": 0
        }
      ]
    }
  ],
  "textures": [
    {
      "sampler": 0,
      "source": 0
    },
    {
      "sampler": 0,
      "source": 1
    },
    {
      "sampler": 0,
      "source": 2
    }
  ],
  "images": [
    {
      "mimeType": "image/jpeg",
      "name": "food_pomegranate_01_nor_gl",
      "uri": "textures/food_pomegranate_01_nor_gl_4k.jpg"
    },
    {
      "mimeType": "image/jpeg",
      "name": "food_pomegranate_01_diff",
      "uri": "textures/food_pomegranate_01_diff_4k.jpg"
    },
    {
      "mimeType": "image/jpeg",
      "name": "food_pomegranate_01_rough",
      "uri": "textures/food_pomegranate_01_rough_4k.jpg"
    }
  ],
  "accessors": [
    {
      "bufferView": 0,
      "componentType": 5126,
      "count": 4593,
      "max": [
        0.0545337088406086,
        0.11526758968830109,
        0.05773773044347763
      ],
      "min": [
        -0.0597374252974987,
        0.0003110244870185852,
        -0.05761651322245598
      ],
      "type": "VEC3"
    },
    {
      "bufferView": 1,
      "componentType": 5126,
      "count": 4593,
      "type": "VEC3"
    },
    {
      "bufferView": 2,
      "componentType": 5126,
      "count": 4593,
      "type": "VEC2"
    },
    {
      "bufferView": 3,
      "componentType": 5123,
      "count": 24426,
      "type": "SCALAR"
    }
  ],
  "bufferViews": [
    {
      "buffer": 0,
      "byteLength": 55116,
      "byteOffset": 0
    },
    {
      "buffer": 0,
      "byteLength": 55116,
      "byteOffset": 55116
    },
    {
      "buffer": 0,
      "byteLength": 36744,
      "byteOffset": 110232
    },
    {
      "buffer": 0,
      "byteLength": 48852,
      "byteOffset": 146976
    }
  ],
  "samplers": [
    {
      "magFilter": 9729,
      "minFilter": 9987
    }
  ],
  "buffers": [
    {
      "byteLength": 195828,
      "uri": "food_pomegranate_01.bin"
    }
  ]
}