{
  "asset": {
    "generator": "Khronos glTF Blender I/O v1.6.16",
    "version": "2.0"
  },
  "scene": 0,
  "scenes": [
    {
      "name": "Scene",
      "nodes": [
        0
      ]
    }
  ],
  "nodes": [
    {
      "mesh": 0,
      "name": "food_lime_01"
    }
  ],
  "materials": [
    {
      "doubleSided": true,
      "name": "food_lime_01",
      "normalTexture": {
        "index": 0
      },
      "pbrMetallicRoughness": {
        "baseColorTexture": {
          "index": 1
        },
        "metallicFactor": 0,
        "metallicRoughnessTexture": {
          "index": 2
        }
      }
    }
  ],
  "meshes": [
    {
      "name": "lime_50k_uv.001",
      "primitives": [
        {
          "attributes": {
            "POSITION": 0,
            "NORMAL": 1,
            "TEXCOORD_0": 2
          },
          "indices": 3,
          "material": 0
        }
      ]
    }
  ],
  "textures": [
    {
      "sampler": 0,
      "source": 0
    },
    {
      "sampler": 0,
      "source": 1
    },
    {
      "sampler": 0,
      "source": 2
    }
  ],
  "images": [
    {
      "mimeType": "image/jpeg",
      "name": "food_lime_01_nor_gl",
      "uri": "textures/food_lime_01_nor_gl_4k.jpg"
    },
    {
      "mimeType": "image/jpeg",
      "name": "food_lime_01_diff",
      "uri": "textures/food_lime_01_diff_4k.jpg"
    },
    {
      "mimeType": "image/jpeg",
      "name": "food_lime_01_rough",
      "uri": "textures/food_lime_01_rough_4k.jpg"
    }
  ],
  "accessors": [
    {
      "bufferView": 0,
      "componentType": 5126,
      "count": 4375,
      "max": [
        0.029137466102838516,
        0.07557447254657745,
        0.02829606644809246
      ],
      "min": [
        -0.030932633206248283,
        0.00013330922229215503,
        -0.03304187208414078
      ],
      "type": "VEC3"
    },
    {
      "bufferView": 1,
      "componentType": 5126,
      "count": 4375,
      "type": "VEC3"
    },
    {
      "bufferView": 2,
      "componentType": 5126,
      "count": 4375,
      "type": "VEC2"
    },
    {
      "bufferView": 3,
      "componentType": 5123,
      "count": 24300,
      "type": "SCALAR"
    }
  ],
  "bufferViews": [
    {
      "buffer": 0,
      "byteLength": 52500,
      "byteOffset": 0
    },
    {
      "buffer": 0,
      "byteLength": 52500,
      "byteOffset": 52500
    },
    {
      "buffer": 0,
      "byteLength": 35000,
      "byteOffset": 105000
    },
    {
      "buffer": 0,
      "byteLength": 48600,
      "byteOffset": 140000
    }
  ],
  "samplers": [
    {
      "magFilter": 9729,
      "minFilter": 9987
    }
  ],
  "buffers": [
    {
      "byteLength": 188600,
      "uri": "food_lime_01.bin"
    }
  ]
}