{
  "asset": {
    "generator": "Khronos glTF Blender I/O v1.6.16",
    "version": "2.0"
  },
  "scene": 0,
  "scenes": [
    {
      "name": "Scene",
      "nodes": [
        0
      ]
    }
  ],
  "nodes": [
    {
      "mesh": 0,
      "name": "food_avocado_01"
    }
  ],
  "materials": [
    {
      "doubleSided": true,
      "name": "food_avocado_01",
      "normalTexture": {
        "index": 0
      },
      "pbrMetallicRoughness": {
        "baseColorTexture": {
          "index": 1
        },
        "metallicFactor": 0,
        "metallicRoughnessTexture": {
          "index": 2
        }
      }
    }
  ],
  "meshes": [
    {
      "name": "avocado_50k_uv.001",
      "primitives": [
        {
          "attributes": {
            "POSITION": 0,
            "NORMAL": 1,
            "TEXCOORD_0": 2
          },
          "indices": 3,
          "material": 0
        }
      ]
    }
  ],
  "textures": [
    {
      "sampler": 0,
      "source": 0
    },
    {
      "sampler": 0,
      "source": 1
    },
    {
      "sampler": 0,
      "source": 2
    }
  ],
  "images": [
    {
      "mimeType": "image/jpeg",
      "name": "food_avocado_01_nor_gl.png",
      "uri": "textures/food_avocado_01_nor_gl_4k.jpg"
    },
    {
      "mimeType": "image/jpeg",
      "name": "food_avocado_01_diff.png",
      "uri": "textures/food_avocado_01_diff_4k.jpg"
    },
    {
      "mimeType": "image/jpeg",
      "name": "food_avocado_01_rough.png",
      "uri": "textures/food_avocado_01_rough_4k.jpg"
    }
  ],
  "accessors": [
    {
      "bufferView": 0,
      "componentType": 5126,
      "count": 4170,
      "max": [
        0.04597127065062523,
        0.14350612461566925,
        0.04536880925297737
      ],
      "min": [
        -0.04921463876962662,
        0.0002716426970437169,
        -0.04919798672199249
      ],
      "type": "VEC3"
    },
    {
      "bufferView": 1,
      "componentType": 5126,
      "count": 4170,
      "type": "VEC3"
    },
    {
      "bufferView": 2,
      "componentType": 5126,
      "count": 4170,
      "type": "VEC2"
    },
    {
      "bufferView": 3,
      "componentType": 5123,
      "count": 23229,
      "type": "SCALAR"
    }
  ],
  "bufferViews": [
    {
      "buffer": 0,
      "byteLength": 50040,
      "byteOffset": 0
    },
    {
      "buffer": 0,
      "byteLength": 50040,
      "byteOffset": 50040
    },
    {
      "buffer": 0,
      "byteLength": 33360,
      "byteOffset": 100080
    },
    {
      "buffer": 0,
      "byteLength": 46458,
      "byteOffset": 133440
    }
  ],
  "samplers": [
    {
      "magFilter": 9729,
      "minFilter": 9987
    }
  ],
  "buffers": [
    {
      "byteLength": 179900,
      "uri": "food_avocado_01.bin"
    }
  ]
}