{
  "asset": {
    "generator": "Khronos glTF Blender I/O v1.6.16",
    "version": "2.0"
  },
  "scene": 0,
  "scenes": [
    {
      "name": "Scene",
      "nodes": [
        0
      ]
    }
  ],
  "nodes": [
    {
      "mesh": 0,
      "name": "food_lychee_01"
    }
  ],
  "materials": [
    {
      "doubleSided": true,
      "name": "food_lychee_01",
      "normalTexture": {
        "index": 0
      },
      "pbrMetallicRoughness": {
        "baseColorTexture": {
          "index": 1
        },
        "metallicFactor": 0,
        "metallicRoughnessTexture": {
          "index": 2
        }
      }
    }
  ],
  "meshes": [
    {
      "name": "lychee_50k_uv.001",
      "primitives": [
        {
          "attributes": {
            "POSITION": 0,
            "NORMAL": 1,
            "TEXCOORD_0": 2
          },
          "indices": 3,
          "material": 0
        }
      ]
    }
  ],
  "textures": [
    {
      "sampler": 0,
      "source": 0
    },
    {
      "sampler": 0,
      "source": 1
    },
    {
      "sampler": 0,
      "source": 2
    }
  ],
  "images": [
    {
      "mimeType": "image/jpeg",
      "name": "food_lychee_01_nor_gl",
      "uri": "textures/food_lychee_01_nor_gl_4k.jpg"
    },
    {
      "mimeType": "image/jpeg",
      "name": "food_lychee_01_diff",
      "uri": "textures/food_lychee_01_diff_4k.jpg"
    },
    {
      "mimeType": "image/jpeg",
      "name": "food_lychee_01_rough",
      "uri": "textures/food_lychee_01_rough_4k.jpg"
    }
  ],
  "accessors": [
    {
      "bufferView": 0,
      "componentType": 5126,
      "count": 3661,
      "max": [
        0.018796322867274284,
        0.04996885731816292,
        0.023047640919685364
      ],
      "min": [
        -0.02207653969526291,
        -0.0006301691755652428,
        -0.01890373043715954
      ],
      "type": "VEC3"
    },
    {
      "bufferView": 1,
      "componentType": 5126,
      "count": 3661,
      "type": "VEC3"
    },
    {
      "bufferView": 2,
      "componentType": 5126,
      "count": 3661,
      "type": "VEC2"
    },
    {
      "bufferView": 3,
      "componentType": 5123,
      "count": 20349,
      "type": "SCALAR"
    }
  ],
  "bufferViews": [
    {
      "buffer": 0,
      "byteLength": 43932,
      "byteOffset": 0
    },
    {
      "buffer": 0,
      "byteLength": 43932,
      "byteOffset": 43932
    },
    {
      "buffer": 0,
      "byteLength": 29288,
      "byteOffset": 87864
    },
    {
      "buffer": 0,
      "byteLength": 40698,
      "byteOffset": 117152
    }
  ],
  "samplers": [
    {
      "magFilter": 9729,
      "minFilter": 9987
    }
  ],
  "buffers": [
    {
      "byteLength": 157852,
      "uri": "food_lychee_01.bin"
    }
  ]
}